<?xml version="1.0" encoding="utf-8"?>
<!-- Generator: Adobe Illustrator 20.0.0, SVG Export Plug-In . SVG Version: 6.00 Build 0)  -->
<svg version="1.1" xmlns="http://www.w3.org/2000/svg" xmlns:xlink="http://www.w3.org/1999/xlink" x="0px" y="0px"
	 viewBox="0 0 252 144" style="enable-background:new 0 0 252 144;" xml:space="preserve">
<style type="text/css">
	.st0{clip-path:url(#SVGID_2_);fill:#791F21;}
	.st1{clip-path:url(#SVGID_2_);}
	.st2{fill:#490000;}
</style>
<g id="Patterns">
</g>
<g id="Mask">
	<g>
		<defs>
			<rect id="SVGID_1_" width="252" height="144"/>
		</defs>
		<clipPath id="SVGID_2_">
			<use xlink:href="#SVGID_1_"  style="overflow:visible;"/>
		</clipPath>
		<polygon id="back2" class="st0" points="256.5,148.5 -4.6,148.5 -4.5,-4.5 256.5,-4.5 		"/>
		<g id="back1" class="st1">
			<g>
				<polygon class="st2" points="153.5,94 148.2,91 152.3,89.9 				"/>
				<polygon class="st2" points="154.6,98.2 144,92.1 139.9,93.2 155.7,102.3 				"/>
				<polygon class="st2" points="156.8,106.5 135.7,94.3 131.5,95.4 157.9,110.7 				"/>
				<polygon class="st2" points="159,114.8 127.4,96.5 123.2,97.7 160.2,119 				"/>
				<polygon class="st2" points="161.3,123.2 119,98.8 114.9,99.9 162.4,127.3 				"/>
				<polygon class="st2" points="163.5,131.5 110.7,101 111.8,105.2 159.3,132.6 				"/>
				<polygon class="st2" points="155.2,133.7 113,109.3 114.1,113.5 151,134.8 				"/>
				<polygon class="st2" points="146.8,135.9 115.2,117.7 116.3,121.8 142.7,137.1 				"/>
				<polygon class="st2" points="138.5,138.2 117.4,126 118.5,130.1 134.4,139.3 				"/>
				<polygon class="st2" points="130.2,140.4 119.6,134.3 120.8,138.5 126,141.5 				"/>
			</g>
			<g>
				<polygon class="st2" points="236.7,71.7 231.4,68.7 235.6,67.5 				"/>
				<polygon class="st2" points="237.8,75.9 227.3,69.8 223.1,70.9 238.9,80 				"/>
				<polygon class="st2" points="240.1,84.2 218.9,72 214.8,73.1 241.2,88.4 				"/>
				<polygon class="st2" points="242.3,92.5 210.6,74.2 206.5,75.4 243.4,96.7 				"/>
				<polygon class="st2" points="244.5,100.8 202.3,76.5 198.1,77.6 245.6,105 				"/>
				<polygon class="st2" points="246.7,109.2 194,78.7 195.1,82.9 242.6,110.3 				"/>
				<polygon class="st2" points="238.4,111.4 196.2,87 197.3,91.2 234.3,112.5 				"/>
				<polygon class="st2" points="230.1,113.6 198.4,95.3 199.5,99.5 225.9,114.7 				"/>
				<polygon class="st2" points="221.8,115.9 200.7,103.7 201.8,107.8 217.6,117 				"/>
				<polygon class="st2" points="213.4,118.1 202.9,112 204,116.2 209.3,119.2 				"/>
			</g>
			<g>
				<polygon class="st2" points="183.9,41.2 178.7,38.2 174.5,39.3 185,45.4 				"/>
				<polygon class="st2" points="186.2,49.6 170.3,40.4 166.2,41.5 187.3,53.7 				"/>
				<polygon class="st2" points="188.4,57.9 162,42.7 157.8,43.8 189.5,62 				"/>
				<polygon class="st2" points="190.6,66.2 153.7,44.9 149.5,46 191.7,70.4 				"/>
				<polygon class="st2" points="192.9,74.5 145.4,47.1 141.2,48.2 194,78.7 				"/>
				<polygon class="st2" points="189.8,79.8 185.6,80.9 143.4,56.6 142.3,52.4 				"/>
				<polygon class="st2" points="181.5,82 144.5,60.7 145.7,64.9 177.3,83.2 				"/>
				<polygon class="st2" points="173.2,84.3 146.8,69 147.9,73.2 169,85.4 				"/>
				<polygon class="st2" points="164.8,86.5 149,77.4 150.1,81.5 160.7,87.6 				"/>
				<polygon class="st2" points="156.5,88.7 151.2,85.7 152.3,89.9 				"/>
			</g>
			<g>
				<polygon class="st2" points="206.2,124.5 201,121.4 196.8,122.6 207.4,128.6 				"/>
				<polygon class="st2" points="208.5,132.8 192.6,123.7 188.5,124.8 209.6,137 				"/>
				<polygon class="st2" points="210.7,141.1 184.3,125.9 180.1,127 211.8,145.3 				"/>
				<polygon class="st2" points="212.9,149.5 176,128.1 171.8,129.2 214,153.6 				"/>
				<polygon class="st2" points="215.2,157.8 167.7,130.4 163.5,131.5 216.3,161.9 				"/>
				<polygon class="st2" points="212.1,163.1 208,164.2 165.7,139.8 164.6,135.6 				"/>
				<polygon class="st2" points="203.8,165.3 166.8,144 168,148.1 199.6,166.4 				"/>
				<polygon class="st2" points="195.5,167.5 169.1,152.3 170.2,156.5 191.3,168.6 				"/>
				<polygon class="st2" points="187.1,169.8 171.3,160.6 172.4,164.8 183,170.9 				"/>
				<polygon class="st2" points="178.8,172 173.5,168.9 174.7,173.1 				"/>
			</g>
			
				<rect x="157.2" y="83.5" transform="matrix(-0.9659 0.2588 -0.2588 -0.9659 378.577 160.3349)" class="st2" width="43.1" height="43.1"/>
			<g>
				<polygon class="st2" points="100.7,63.5 95.4,60.5 91.2,61.6 101.8,67.7 				"/>
				<polygon class="st2" points="102.9,71.9 87.1,62.7 82.9,63.8 104,76 				"/>
				<polygon class="st2" points="105.1,80.2 78.8,65 74.6,66.1 106.3,84.4 				"/>
				<polygon class="st2" points="107.4,88.5 70.4,67.2 66.3,68.3 108.5,92.7 				"/>
				<polygon class="st2" points="109.6,96.8 62.1,69.4 57.9,70.5 110.7,101 				"/>
				<polygon class="st2" points="106.6,102.1 102.4,103.2 60.2,78.9 59.1,74.7 				"/>
				<polygon class="st2" points="98.2,104.4 61.3,83 62.4,87.2 94.1,105.5 				"/>
				<polygon class="st2" points="89.9,106.6 63.5,91.3 64.6,95.5 85.7,107.7 				"/>
				<polygon class="st2" points="81.6,108.8 65.8,99.7 66.9,103.8 77.4,109.9 				"/>
				<polygon class="st2" points="73.3,111 68,108 69.1,112.2 				"/>
			</g>
			<g>
				<polygon class="st2" points="123,146.8 117.7,143.7 113.5,144.9 124.1,151 				"/>
				<polygon class="st2" points="125.2,155.1 109.4,146 105.2,147.1 126.3,159.3 				"/>
				<polygon class="st2" points="127.5,163.4 101.1,148.2 96.9,149.3 128.6,167.6 				"/>
				<polygon class="st2" points="129.7,171.8 92.7,150.4 88.6,151.6 130.8,175.9 				"/>
				<polygon class="st2" points="131.9,180.1 84.4,152.7 80.3,153.8 133,184.3 				"/>
				<polygon class="st2" points="128.9,185.4 124.7,186.5 82.5,162.1 81.4,157.9 				"/>
				<polygon class="st2" points="120.5,187.6 83.6,166.3 84.7,170.4 116.4,188.7 				"/>
				<polygon class="st2" points="112.2,189.8 85.8,174.6 86.9,178.8 108.1,190.9 				"/>
				<polygon class="st2" points="103.9,192.1 88.1,182.9 89.2,187.1 99.7,193.2 				"/>
				<polygon class="st2" points="95.6,194.3 90.3,191.2 91.4,195.4 				"/>
			</g>
			
				<rect x="73.9" y="105.8" transform="matrix(-0.9659 0.2588 -0.2588 -0.9659 220.6883 225.7345)" class="st2" width="43.1" height="43.1"/>
			<g>
				<polygon class="st2" points="267.2,18.9 261.9,15.9 257.7,17 268.3,23.1 				"/>
				<polygon class="st2" points="269.4,27.3 253.6,18.1 249.4,19.2 270.5,31.4 				"/>
				<polygon class="st2" points="271.6,35.6 245.3,20.3 241.1,21.5 272.8,39.7 				"/>
				<polygon class="st2" points="273.9,43.9 236.9,22.6 232.8,23.7 275,48.1 				"/>
				<polygon class="st2" points="276.1,52.2 228.6,24.8 224.4,25.9 277.2,56.4 				"/>
				<polygon class="st2" points="273.1,57.5 268.9,58.6 226.7,34.2 225.6,30.1 				"/>
				<polygon class="st2" points="264.7,59.7 227.8,38.4 228.9,42.6 260.6,60.9 				"/>
				<polygon class="st2" points="256.4,62 230,46.7 231.1,50.9 252.2,63.1 				"/>
				<polygon class="st2" points="248.1,64.2 232.2,55.1 233.4,59.2 243.9,65.3 				"/>
				<polygon class="st2" points="239.8,66.4 234.5,63.4 235.6,67.5 				"/>
			</g>
			<g>
				<polygon class="st2" points="289.5,102.2 284.2,99.1 280,100.2 290.6,106.3 				"/>
				<polygon class="st2" points="291.7,110.5 275.9,101.4 271.7,102.5 292.8,114.7 				"/>
				<polygon class="st2" points="294,118.8 267.6,103.6 263.4,104.7 295.1,123 				"/>
				<polygon class="st2" points="296.2,127.2 259.2,105.8 255.1,106.9 297.3,131.3 				"/>
				<polygon class="st2" points="298.4,135.5 250.9,108.1 246.7,109.2 299.5,139.6 				"/>
				<polygon class="st2" points="295.4,140.8 291.2,141.9 249,117.5 247.9,113.3 				"/>
				<polygon class="st2" points="287,143 250.1,121.7 251.2,125.8 282.9,144.1 				"/>
				<polygon class="st2" points="278.7,145.2 252.3,130 253.4,134.1 274.6,146.3 				"/>
				<polygon class="st2" points="270.4,147.4 254.6,138.3 255.7,142.5 266.2,148.6 				"/>
				<polygon class="st2" points="262.1,149.7 256.8,146.6 257.9,150.8 				"/>
			</g>
			
				<rect x="240.4" y="61.2" transform="matrix(-0.9659 0.2588 -0.2588 -0.9659 536.467 94.9347)" class="st2" width="43.1" height="43.1"/>
			<g>
				<polygon class="st2" points="131.2,10.8 125.9,7.7 130,6.6 				"/>
				<polygon class="st2" points="132.3,14.9 121.7,8.8 117.6,10 133.4,19.1 				"/>
				<polygon class="st2" points="134.5,23.3 113.4,11.1 109.2,12.2 135.6,27.4 				"/>
				<polygon class="st2" points="136.7,31.6 105.1,13.3 100.9,14.4 137.8,35.7 				"/>
				<polygon class="st2" points="139,39.9 96.7,15.5 92.6,16.6 140.1,44.1 				"/>
				<polygon class="st2" points="141.2,48.2 88.4,17.8 89.5,21.9 137,49.3 				"/>
				<polygon class="st2" points="132.9,50.5 90.6,26.1 91.8,30.2 128.7,51.6 				"/>
				<polygon class="st2" points="124.5,52.7 92.9,34.4 94,38.6 120.4,53.8 				"/>
				<polygon class="st2" points="116.2,54.9 95.1,42.7 96.2,46.9 112.1,56 				"/>
				<polygon class="st2" points="107.9,57.2 97.3,51.1 98.5,55.2 103.7,58.3 				"/>
			</g>
			<g>
				<polygon class="st2" points="214.4,-11.5 209.1,-14.6 213.3,-15.7 				"/>
				<polygon class="st2" points="215.5,-7.4 205,-13.5 200.8,-12.4 216.6,-3.2 				"/>
				<polygon class="st2" points="217.7,0.9 196.6,-11.2 192.5,-10.1 218.9,5.1 				"/>
				<polygon class="st2" points="220,9.3 188.3,-9 184.2,-7.9 221.1,13.4 				"/>
				<polygon class="st2" points="222.2,17.6 180,-6.8 175.8,-5.7 223.3,21.8 				"/>
				<polygon class="st2" points="224.4,25.9 171.7,-4.5 172.8,-0.4 220.3,27 				"/>
				<polygon class="st2" points="216.1,28.2 173.9,3.8 175,7.9 212,29.3 				"/>
				<polygon class="st2" points="207.8,30.4 176.1,12.1 177.2,16.3 203.6,31.5 				"/>
				<polygon class="st2" points="199.5,32.6 178.4,20.4 179.5,24.6 195.3,33.7 				"/>
				<polygon class="st2" points="191.1,34.8 180.6,28.8 181.7,32.9 187,36 				"/>
			</g>
			<g>
				<polygon class="st2" points="161.6,-42 156.3,-45.1 152.2,-43.9 162.7,-37.8 				"/>
				<polygon class="st2" points="163.9,-33.7 148,-42.8 143.9,-41.7 165,-29.5 				"/>
				<polygon class="st2" points="166.1,-25.4 139.7,-40.6 135.5,-39.5 167.2,-21.2 				"/>
				<polygon class="st2" points="168.3,-17 131.4,-38.4 127.2,-37.3 169.4,-12.9 				"/>
				<polygon class="st2" points="170.5,-8.7 123,-36.1 118.9,-35 171.7,-4.5 				"/>
				<polygon class="st2" points="167.5,-3.4 163.3,-2.3 121.1,-26.7 120,-30.9 				"/>
				<polygon class="st2" points="159.2,-1.2 122.2,-22.5 123.3,-18.4 155,-0.1 				"/>
				<polygon class="st2" points="150.9,1 124.5,-14.2 125.6,-10 146.7,2.1 				"/>
				<polygon class="st2" points="142.5,3.3 126.7,-5.9 127.8,-1.7 138.4,4.4 				"/>
				<polygon class="st2" points="134.2,5.5 128.9,2.4 130,6.6 				"/>
			</g>
			
				<rect x="134.9" y="0.3" transform="matrix(-0.9659 0.2588 -0.2588 -0.9659 313.1785 2.4491)" class="st2" width="43.1" height="43.1"/>
			<g>
				<polygon class="st2" points="78.4,-19.7 73.1,-22.8 68.9,-21.6 79.5,-15.5 				"/>
				<polygon class="st2" points="80.6,-11.4 64.8,-20.5 60.6,-19.4 81.7,-7.2 				"/>
				<polygon class="st2" points="82.8,-3.1 56.4,-18.3 52.3,-17.2 84,1.1 				"/>
				<polygon class="st2" points="85.1,5.3 48.1,-16.1 44,-14.9 86.2,9.4 				"/>
				<polygon class="st2" points="87.3,13.6 39.8,-13.8 35.6,-12.7 88.4,17.8 				"/>
				<polygon class="st2" points="84.3,18.9 80.1,20 37.9,-4.4 36.8,-8.6 				"/>
				<polygon class="st2" points="75.9,21.1 39,-0.2 40.1,3.9 71.8,22.2 				"/>
				<polygon class="st2" points="67.6,23.3 41.2,8.1 42.3,12.3 63.4,24.4 				"/>
				<polygon class="st2" points="59.3,25.6 43.4,16.4 44.6,20.6 55.1,26.7 				"/>
				<polygon class="st2" points="51,27.8 45.7,24.7 46.8,28.9 				"/>
			</g>
			
				<rect x="51.6" y="22.6" transform="matrix(-0.9659 0.2588 -0.2588 -0.9659 155.2899 67.8487)" class="st2" width="43.1" height="43.1"/>
			<g>
				<polygon class="st2" points="244.9,-64.3 239.6,-67.4 235.4,-66.2 246,-60.2 				"/>
				<polygon class="st2" points="247.1,-56 231.3,-65.1 227.1,-64 248.2,-51.8 				"/>
				<polygon class="st2" points="249.3,-47.7 222.9,-62.9 218.8,-61.8 250.5,-43.5 				"/>
				<polygon class="st2" points="251.6,-39.3 214.6,-60.7 210.5,-59.6 252.7,-35.2 				"/>
				<polygon class="st2" points="253.8,-31 206.3,-58.4 202.1,-57.3 254.9,-26.9 				"/>
				<polygon class="st2" points="250.8,-25.7 246.6,-24.6 204.4,-49 203.3,-53.2 				"/>
				<polygon class="st2" points="242.4,-23.5 205.5,-44.8 206.6,-40.7 238.3,-22.4 				"/>
				<polygon class="st2" points="234.1,-21.3 207.7,-36.5 208.8,-32.4 229.9,-20.2 				"/>
				<polygon class="st2" points="225.8,-19 209.9,-28.2 211.1,-24 221.6,-17.9 				"/>
				<polygon class="st2" points="217.5,-16.8 212.2,-19.9 213.3,-15.7 				"/>
			</g>
			
				<rect x="218.1" y="-22" transform="matrix(-0.9659 0.2588 -0.2588 -0.9659 471.0685 -62.9511)" class="st2" width="43.1" height="43.1"/>
			<g>
				<polygon class="st2" points="70.1,115.8 64.8,112.8 69,111.6 				"/>
				<polygon class="st2" points="71.2,120 60.6,113.9 56.5,115 72.3,124.1 				"/>
				<polygon class="st2" points="73.4,128.3 52.3,116.1 48.1,117.2 74.5,132.5 				"/>
				<polygon class="st2" points="75.7,136.6 44,118.3 39.8,119.4 76.8,140.8 				"/>
				<polygon class="st2" points="77.9,144.9 35.7,120.6 31.5,121.7 79,149.1 				"/>
				<polygon class="st2" points="80.1,153.3 27.3,122.8 28.4,127 75.9,154.4 				"/>
				<polygon class="st2" points="71.8,155.5 29.6,131.1 30.7,135.3 67.6,156.6 				"/>
				<polygon class="st2" points="63.5,157.7 31.8,139.4 32.9,143.6 59.3,158.8 				"/>
				<polygon class="st2" points="55.1,160 34,147.8 35.1,151.9 51,161.1 				"/>
				<polygon class="st2" points="46.8,162.2 36.3,156.1 37.4,160.3 42.6,163.3 				"/>
			</g>
			<g>
				<polygon class="st2" points="17.3,85.3 12,82.3 7.9,83.4 18.4,89.5 				"/>
				<polygon class="st2" points="19.5,93.7 3.7,84.5 -0.5,85.6 20.6,97.8 				"/>
				<polygon class="st2" points="21.8,102 -4.6,86.7 -8.8,87.9 22.9,106.1 				"/>
				<polygon class="st2" points="24,110.3 -13,89 -17.1,90.1 25.1,114.5 				"/>
				<polygon class="st2" points="26.2,118.6 -21.3,91.2 -25.4,92.3 27.3,122.8 				"/>
				<polygon class="st2" points="23.2,123.9 19,125 -23.2,100.6 -24.3,96.5 				"/>
				<polygon class="st2" points="14.8,126.1 -22.1,104.8 -21,109 10.7,127.3 				"/>
				<polygon class="st2" points="6.5,128.4 -19.9,113.1 -18.8,117.3 2.4,129.5 				"/>
				<polygon class="st2" points="-1.8,130.6 -17.6,121.5 -16.5,125.6 -6,131.7 				"/>
				<polygon class="st2" points="-10.1,132.8 -15.4,129.8 -14.3,133.9 				"/>
			</g>
			<g>
				<polygon class="st2" points="39.6,168.6 34.3,165.5 30.2,166.6 40.7,172.7 				"/>
				<polygon class="st2" points="41.8,176.9 26,167.8 21.8,168.9 42.9,181.1 				"/>
				<polygon class="st2" points="44.1,185.2 17.7,170 13.5,171.1 45.2,189.4 				"/>
				<polygon class="st2" points="46.3,193.6 9.4,172.2 5.2,173.3 47.4,197.7 				"/>
				<polygon class="st2" points="48.5,201.9 1,174.5 -3.1,175.6 49.6,206 				"/>
				<polygon class="st2" points="45.5,207.2 41.3,208.3 -0.9,183.9 -2,179.7 				"/>
				<polygon class="st2" points="37.2,209.4 0.2,188.1 1.3,192.2 33,210.5 				"/>
				<polygon class="st2" points="28.8,211.6 2.4,196.4 3.6,200.5 24.7,212.7 				"/>
				<polygon class="st2" points="20.5,213.8 4.7,204.7 5.8,208.9 16.3,215 				"/>
				<polygon class="st2" points="12.2,216.1 6.9,213 8,217.2 				"/>
			</g>
			
				<rect x="-9.4" y="127.6" transform="matrix(-0.9659 0.2588 -0.2588 -0.9659 62.3937 290.1462)" class="st2" width="43.1" height="43.1"/>
			<g>
				<polygon class="st2" points="47.8,32.6 42.5,29.5 46.7,28.4 				"/>
				<polygon class="st2" points="48.9,36.7 38.3,30.6 34.2,31.7 50,40.9 				"/>
				<polygon class="st2" points="51.1,45 30,32.9 25.8,34 52.2,49.2 				"/>
				<polygon class="st2" points="53.3,53.4 21.7,35.1 17.5,36.2 54.5,57.5 				"/>
				<polygon class="st2" points="55.6,61.7 13.4,37.3 9.2,38.4 56.7,65.9 				"/>
				<polygon class="st2" points="57.8,70 5,39.5 6.1,43.7 53.6,71.1 				"/>
				<polygon class="st2" points="49.5,72.2 7.3,47.9 8.4,52 45.3,73.4 				"/>
				<polygon class="st2" points="41.2,74.5 9.5,56.2 10.6,60.4 37,75.6 				"/>
				<polygon class="st2" points="32.8,76.7 11.7,64.5 12.8,68.7 28.7,77.8 				"/>
				<polygon class="st2" points="24.5,78.9 14,72.8 15.1,77 20.3,80.1 				"/>
			</g>
			<g>
				<polygon class="st2" points="-5,2.1 -10.3,-1 -14.5,0.2 -3.9,6.2 				"/>
				<polygon class="st2" points="-2.8,10.4 -18.6,1.3 -22.8,2.4 -1.7,14.6 				"/>
				<polygon class="st2" points="-0.5,18.7 -26.9,3.5 -31.1,4.6 0.6,22.9 				"/>
				<polygon class="st2" points="1.7,27.1 -35.3,5.7 -39.4,6.8 2.8,31.2 				"/>
				<polygon class="st2" points="3.9,35.4 -43.6,8 -47.8,9.1 5,39.5 				"/>
				<polygon class="st2" points="0.9,40.7 -3.3,41.8 -45.5,17.4 -46.6,13.2 				"/>
				<polygon class="st2" points="-7.5,42.9 -44.4,21.6 -43.3,25.7 -11.6,44 				"/>
				<polygon class="st2" points="-15.8,45.1 -42.2,29.9 -41.1,34 -19.9,46.2 				"/>
				<polygon class="st2" points="-24.1,47.4 -39.9,38.2 -38.8,42.4 -28.3,48.5 				"/>
				<polygon class="st2" points="-32.4,49.6 -37.7,46.5 -36.6,50.7 				"/>
			</g>
			
				<rect x="-31.8" y="44.4" transform="matrix(-0.9659 0.2588 -0.2588 -0.9659 -3.0047 132.2603)" class="st2" width="43.1" height="43.1"/>
		</g>
	</g>
</g>
</svg>
