<?xml version="1.0" encoding="utf-8"?>
<!-- Generator: Adobe Illustrator 20.0.0, SVG Export Plug-In . SVG Version: 6.00 Build 0)  -->
<svg version="1.1" xmlns="http://www.w3.org/2000/svg" xmlns:xlink="http://www.w3.org/1999/xlink" x="0px" y="0px"
	 viewBox="0 0 252 144" style="enable-background:new 0 0 252 144;" xml:space="preserve">
<style type="text/css">
	.st0{display:none;}
	.st1{display:inline;}
	.st2{fill:#3AA657;}
	.st3{display:inline;fill:#A32430;}
	.st4{display:inline;fill:#3AA657;}
	.st5{display:inline;fill:#FFFFFF;}
	.st6{fill:#A32430;}
	.st7{fill:#490000;}
	.st8{display:inline;fill:#490000;}
	.st9{clip-path:url(#SVGID_2_);}
	.st10{fill:#791F21;}
</style>
<g id="save_-_template" class="st0">
	<g class="st1">
		<polygon class="st2" points="-144,-162 -54,-72 -54,-81 -135,-162 		"/>
		<polygon class="st2" points="-126,-162 -54,-90 -54,-99 -117,-162 		"/>
		<polygon class="st2" points="-108,-162 -54,-108 -54,-117 -99,-162 		"/>
		<polygon class="st2" points="-90,-162 -54,-126 -54,-135 -81,-162 		"/>
		<polygon class="st2" points="-72,-162 -54,-144 -54,-153 -63,-162 		"/>
	</g>
	<polygon class="st3" points="27,18 36,18 -54,-72 -63,-72 -144,-153 -144,-144 -72,-72 -81,-72 -144,-135 -144,-126 -90,-72 
		-99,-72 -144,-117 -144,-108 -108,-72 -117,-72 -144,-99 -144,-90 -126,-72 -135,-72 -144,-81 -144,-72 -144,18 -54,108 -54,99 
		-135,18 -126,18 -54,90 -54,81 -117,18 -108,18 -54,72 -54,63 -99,18 -90,18 -54,54 -54,45 -81,18 -72,18 -54,36 -54,27 -63,18 
		-54,18 -54,9 -45,18 -36,18 -54,0 -54,-9 -27,18 -18,18 -54,-18 -54,-27 -9,18 0,18 -54,-36 -54,-45 9,18 18,18 -54,-54 -54,-63 	
		"/>
	<polygon class="st1" points="27,198 36,198 -54,108 -63,108 -144,27 -144,36 -72,108 -81,108 -144,45 -144,54 -90,108 -99,108 
		-144,63 -144,72 -108,108 -117,108 -144,81 -144,90 -126,108 -135,108 -144,99 -144,108 -144,198 -54,288 -54,279 -135,198 
		-126,198 -54,270 -54,261 -117,198 -108,198 -54,252 -54,243 -99,198 -90,198 -54,234 -54,225 -81,198 -72,198 -54,216 -54,207 
		-63,198 -54,198 -54,189 -45,198 -36,198 -54,180 -54,171 -27,198 -18,198 -54,162 -54,153 -9,198 0,198 -54,144 -54,135 9,198 
		18,198 -54,126 -54,117 	"/>
	<polygon class="st3" points="27,378 36,378 -54,288 -63,288 -144,207 -144,216 -72,288 -81,288 -144,225 -144,234 -90,288 -99,288 
		-144,243 -144,252 -108,288 -117,288 -144,261 -144,270 -126,288 -135,288 -144,279 -144,288 -144,378 -54,468 -54,459 -135,378 
		-126,378 -54,450 -54,441 -117,378 -108,378 -54,432 -54,423 -99,378 -90,378 -54,414 -54,405 -81,378 -72,378 -54,396 -54,387 
		-63,378 -54,378 -54,369 -45,378 -36,378 -54,360 -54,351 -27,378 -18,378 -54,342 -54,333 -9,378 0,378 -54,324 -54,315 9,378 
		18,378 -54,306 -54,297 	"/>
	<polygon class="st3" points="27,738 36,738 -54,648 -63,648 -144,567 -144,576 -72,648 -81,648 -144,585 -144,594 -90,648 -99,648 
		-144,603 -144,612 -108,648 -117,648 -144,621 -144,630 -126,648 -135,648 -144,639 -144,648 -144,738 -54,738 -54,729 -45,738 
		-36,738 -54,720 -54,711 -27,738 -18,738 -54,702 -54,693 -9,738 0,738 -54,684 -54,675 9,738 18,738 -54,666 -54,657 	"/>
	<polygon class="st1" points="27,558 36,558 -54,468 -63,468 -144,387 -144,396 -72,468 -81,468 -144,405 -144,414 -90,468 -99,468 
		-144,423 -144,432 -108,468 -117,468 -144,441 -144,450 -126,468 -135,468 -144,459 -144,468 -144,558 -54,648 -54,639 -135,558 
		-126,558 -54,630 -54,621 -117,558 -108,558 -54,612 -54,603 -99,558 -90,558 -54,594 -54,585 -81,558 -72,558 -54,576 -54,567 
		-63,558 -54,558 -54,549 -45,558 -36,558 -54,540 -54,531 -27,558 -18,558 -54,522 -54,513 -9,558 0,558 -54,504 -54,495 9,558 
		18,558 -54,486 -54,477 	"/>
	<g class="st1">
		<polygon class="st2" points="36,-162 126,-72 126,-81 45,-162 		"/>
		<polygon class="st2" points="54,-162 126,-90 126,-99 63,-162 		"/>
		<polygon class="st2" points="72,-162 126,-108 126,-117 81,-162 		"/>
		<polygon class="st2" points="90,-162 126,-126 126,-135 99,-162 		"/>
		<polygon class="st2" points="108,-162 126,-144 126,-153 117,-162 		"/>
	</g>
	<polygon class="st1" points="207,18 216,18 126,-72 117,-72 36,-153 36,-144 108,-72 99,-72 36,-135 36,-126 90,-72 81,-72 
		36,-117 36,-108 72,-72 63,-72 36,-99 36,-90 54,-72 45,-72 36,-81 36,-72 27,-72 36,-63 36,-54 18,-72 9,-72 36,-45 36,-36 0,-72 
		-9,-72 36,-27 36,-18 -18,-72 -27,-72 36,-9 36,0 -36,-72 -45,-72 36,9 36,18 126,108 126,99 45,18 54,18 126,90 126,81 63,18 
		72,18 126,72 126,63 81,18 90,18 126,54 126,45 99,18 108,18 126,36 126,27 117,18 126,18 126,9 135,18 144,18 126,0 126,-9 
		153,18 162,18 126,-18 126,-27 171,18 180,18 126,-36 126,-45 189,18 198,18 126,-54 126,-63 	"/>
	<polygon class="st3" points="207,198 216,198 126,108 117,108 36,27 36,36 108,108 99,108 36,45 36,54 90,108 81,108 36,63 36,72 
		72,108 63,108 36,81 36,90 54,108 45,108 36,99 36,108 27,108 36,117 36,126 18,108 9,108 36,135 36,144 0,108 -9,108 36,153 
		36,162 -18,108 -27,108 36,171 36,180 -36,108 -45,108 36,189 36,198 126,288 126,279 45,198 54,198 126,270 126,261 63,198 
		72,198 126,252 126,243 81,198 90,198 126,234 126,225 99,198 108,198 126,216 126,207 117,198 126,198 126,189 135,198 144,198 
		126,180 126,171 153,198 162,198 126,162 126,153 171,198 180,198 126,144 126,135 189,198 198,198 126,126 126,117 	"/>
	<polygon class="st1" points="207,378 216,378 126,288 117,288 36,207 36,216 108,288 99,288 36,225 36,234 90,288 81,288 36,243 
		36,252 72,288 63,288 36,261 36,270 54,288 45,288 36,279 36,288 27,288 36,297 36,306 18,288 9,288 36,315 36,324 0,288 -9,288 
		36,333 36,342 -18,288 -27,288 36,351 36,360 -36,288 -45,288 36,369 36,378 126,468 126,459 45,378 54,378 126,450 126,441 
		63,378 72,378 126,432 126,423 81,378 90,378 126,414 126,405 99,378 108,378 126,396 126,387 117,378 126,378 126,369 135,378 
		144,378 126,360 126,351 153,378 162,378 126,342 126,333 171,378 180,378 126,324 126,315 189,378 198,378 126,306 126,297 	"/>
	<polygon class="st1" points="207,738 216,738 126,648 117,648 36,567 36,576 108,648 99,648 36,585 36,594 90,648 81,648 36,603 
		36,612 72,648 63,648 36,621 36,630 54,648 45,648 36,639 36,648 27,648 36,657 36,666 18,648 9,648 36,675 36,684 0,648 -9,648 
		36,693 36,702 -18,648 -27,648 36,711 36,720 -36,648 -45,648 36,729 36,738 126,738 126,729 135,738 144,738 126,720 126,711 
		153,738 162,738 126,702 126,693 171,738 180,738 126,684 126,675 189,738 198,738 126,666 126,657 	"/>
	<polygon class="st3" points="207,558 216,558 126,468 117,468 36,387 36,396 108,468 99,468 36,405 36,414 90,468 81,468 36,423 
		36,432 72,468 63,468 36,441 36,450 54,468 45,468 36,459 36,468 27,468 36,477 36,486 18,468 9,468 36,495 36,504 0,468 -9,468 
		36,513 36,522 -18,468 -27,468 36,531 36,540 -36,468 -45,468 36,549 36,558 126,648 126,639 45,558 54,558 126,630 126,621 
		63,558 72,558 126,612 126,603 81,558 90,558 126,594 126,585 99,558 108,558 126,576 126,567 117,558 126,558 126,549 135,558 
		144,558 126,540 126,531 153,558 162,558 126,522 126,513 171,558 180,558 126,504 126,495 189,558 198,558 126,486 126,477 	"/>
	<rect x="-144" y="855" class="st4" width="90" height="90"/>
	<polygon class="st4" points="-54,936 -45,945 -36,945 -54,927 	"/>
	<polygon class="st4" points="-54,918 -27,945 -18,945 -54,909 	"/>
	<polygon class="st4" points="-54,900 -9,945 0,945 -54,891 	"/>
	<polygon class="st4" points="-54,882 9,945 18,945 -54,873 	"/>
	<polygon class="st4" points="-54,864 27,945 36,945 -54,855 	"/>
	<polygon class="st4" points="-45,855 36,936 36,927 -36,855 	"/>
	<polygon class="st4" points="-27,855 36,918 36,909 -18,855 	"/>
	<polygon class="st4" points="-9,855 36,900 36,891 0,855 	"/>
	<polygon class="st4" points="9,855 36,882 36,873 18,855 	"/>
	<polygon class="st4" points="27,855 36,864 36,855 	"/>
	<polygon class="st4" points="-144,846 -135,855 -144,855 	"/>
	<polygon class="st4" points="-144,837 -126,855 -117,855 -144,828 	"/>
	<polygon class="st4" points="-144,819 -108,855 -99,855 -144,810 	"/>
	<polygon class="st4" points="-144,801 -90,855 -81,855 -144,792 	"/>
	<polygon class="st4" points="-144,783 -72,855 -63,855 -144,774 	"/>
	<polygon class="st4" points="-144,765 -54,855 -54,846 -135,765 	"/>
	<polygon class="st4" points="-126,765 -54,837 -54,828 -117,765 	"/>
	<polygon class="st4" points="-108,765 -54,819 -54,810 -99,765 	"/>
	<polygon class="st4" points="-90,765 -54,801 -54,792 -81,765 	"/>
	<polygon class="st4" points="-72,765 -54,783 -54,774 -63,765 	"/>
	<g class="st1">
		<polygon class="st2" points="216,-162 306,-72 306,-81 225,-162 		"/>
		<polygon class="st2" points="234,-162 306,-90 306,-99 243,-162 		"/>
		<polygon class="st2" points="252,-162 306,-108 306,-117 261,-162 		"/>
		<polygon class="st2" points="270,-162 306,-126 306,-135 279,-162 		"/>
		<polygon class="st2" points="288,-162 306,-144 306,-153 297,-162 		"/>
	</g>
	<polygon class="st3" points="387,18 396,18 306,-72 297,-72 216,-153 216,-144 288,-72 279,-72 216,-135 216,-126 270,-72 261,-72 
		216,-117 216,-108 252,-72 243,-72 216,-99 216,-90 234,-72 225,-72 216,-81 216,-72 207,-72 216,-63 216,-54 198,-72 189,-72 
		216,-45 216,-36 180,-72 171,-72 216,-27 216,-18 162,-72 153,-72 216,-9 216,0 144,-72 135,-72 216,9 216,18 306,108 306,99 
		225,18 234,18 306,90 306,81 243,18 252,18 306,72 306,63 261,18 270,18 306,54 306,45 279,18 288,18 306,36 306,27 297,18 306,18 
		306,9 315,18 324,18 306,0 306,-9 333,18 342,18 306,-18 306,-27 351,18 360,18 306,-36 306,-45 369,18 378,18 306,-54 306,-63 	
		"/>
	<polygon class="st1" points="387,198 396,198 306,108 297,108 216,27 216,36 288,108 279,108 216,45 216,54 270,108 261,108 
		216,63 216,72 252,108 243,108 216,81 216,90 234,108 225,108 216,99 216,108 207,108 216,117 216,126 198,108 189,108 216,135 
		216,144 180,108 171,108 216,153 216,162 162,108 153,108 216,171 216,180 144,108 135,108 216,189 216,198 306,288 306,279 
		225,198 234,198 306,270 306,261 243,198 252,198 306,252 306,243 261,198 270,198 306,234 306,225 279,198 288,198 306,216 
		306,207 297,198 306,198 306,189 315,198 324,198 306,180 306,171 333,198 342,198 306,162 306,153 351,198 360,198 306,144 
		306,135 369,198 378,198 306,126 306,117 	"/>
	<polygon class="st3" points="387,378 396,378 306,288 297,288 216,207 216,216 288,288 279,288 216,225 216,234 270,288 261,288 
		216,243 216,252 252,288 243,288 216,261 216,270 234,288 225,288 216,279 216,288 207,288 216,297 216,306 198,288 189,288 
		216,315 216,324 180,288 171,288 216,333 216,342 162,288 153,288 216,351 216,360 144,288 135,288 216,369 216,378 306,468 
		306,459 225,378 234,378 306,450 306,441 243,378 252,378 306,432 306,423 261,378 270,378 306,414 306,405 279,378 288,378 
		306,396 306,387 297,378 306,378 306,369 315,378 324,378 306,360 306,351 333,378 342,378 306,342 306,333 351,378 360,378 
		306,324 306,315 369,378 378,378 306,306 306,297 	"/>
	<polygon class="st3" points="387,738 396,738 306,648 297,648 216,567 216,576 288,648 279,648 216,585 216,594 270,648 261,648 
		216,603 216,612 252,648 243,648 216,621 216,630 234,648 225,648 216,639 216,648 207,648 216,657 216,666 198,648 189,648 
		216,675 216,684 180,648 171,648 216,693 216,702 162,648 153,648 216,711 216,720 144,648 135,648 216,729 216,738 306,738 
		306,729 315,738 324,738 306,720 306,711 333,738 342,738 306,702 306,693 351,738 360,738 306,684 306,675 369,738 378,738 
		306,666 306,657 	"/>
	<polygon class="st1" points="387,558 396,558 306,468 297,468 216,387 216,396 288,468 279,468 216,405 216,414 270,468 261,468 
		216,423 216,432 252,468 243,468 216,441 216,450 234,468 225,468 216,459 216,468 207,468 216,477 216,486 198,468 189,468 
		216,495 216,504 180,468 171,468 216,513 216,522 162,468 153,468 216,531 216,540 144,468 135,468 216,549 216,558 306,648 
		306,639 225,558 234,558 306,630 306,621 243,558 252,558 306,612 306,603 261,558 270,558 306,594 306,585 279,558 288,558 
		306,576 306,567 297,558 306,558 306,549 315,558 324,558 306,540 306,531 333,558 342,558 306,522 306,513 351,558 360,558 
		306,504 306,495 369,558 378,558 306,486 306,477 	"/>
	<polygon class="st4" points="396,-162 486,-72 486,-81 405,-162 	"/>
	<polygon class="st4" points="414,-162 486,-90 486,-99 423,-162 	"/>
	<polygon class="st4" points="432,-162 486,-108 486,-117 441,-162 	"/>
	<polygon class="st4" points="450,-162 486,-126 486,-135 459,-162 	"/>
	<polygon class="st4" points="468,-162 486,-144 486,-153 477,-162 	"/>
	<polygon class="st1" points="567,18 576,18 486,-72 477,-72 396,-153 396,-144 468,-72 459,-72 396,-135 396,-126 450,-72 441,-72 
		396,-117 396,-108 432,-72 423,-72 396,-99 396,-90 414,-72 405,-72 396,-81 396,-72 387,-72 396,-63 396,-54 378,-72 369,-72 
		396,-45 396,-36 360,-72 351,-72 396,-27 396,-18 342,-72 333,-72 396,-9 396,0 324,-72 315,-72 396,9 396,18 486,108 486,99 
		405,18 414,18 486,90 486,81 423,18 432,18 486,72 486,63 441,18 450,18 486,54 486,45 459,18 468,18 486,36 486,27 477,18 486,18 
		486,9 495,18 504,18 486,0 486,-9 513,18 522,18 486,-18 486,-27 531,18 540,18 486,-36 486,-45 549,18 558,18 486,-54 486,-63 	
		"/>
	<polygon class="st3" points="567,198 576,198 486,108 477,108 396,27 396,36 468,108 459,108 396,45 396,54 450,108 441,108 
		396,63 396,72 432,108 423,108 396,81 396,90 414,108 405,108 396,99 396,108 387,108 396,117 396,126 378,108 369,108 396,135 
		396,144 360,108 351,108 396,153 396,162 342,108 333,108 396,171 396,180 324,108 315,108 396,189 396,198 486,288 486,279 
		405,198 414,198 486,270 486,261 423,198 432,198 486,252 486,243 441,198 450,198 486,234 486,225 459,198 468,198 486,216 
		486,207 477,198 486,198 486,189 495,198 504,198 486,180 486,171 513,198 522,198 486,162 486,153 531,198 540,198 486,144 
		486,135 549,198 558,198 486,126 486,117 	"/>
	<polygon class="st1" points="567,378 576,378 486,288 477,288 396,207 396,216 468,288 459,288 396,225 396,234 450,288 441,288 
		396,243 396,252 432,288 423,288 396,261 396,270 414,288 405,288 396,279 396,288 387,288 396,297 396,306 378,288 369,288 
		396,315 396,324 360,288 351,288 396,333 396,342 342,288 333,288 396,351 396,360 324,288 315,288 396,369 396,378 486,468 
		486,459 405,378 414,378 486,450 486,441 423,378 432,378 486,432 486,423 441,378 450,378 486,414 486,405 459,378 468,378 
		486,396 486,387 477,378 486,378 486,369 495,378 504,378 486,360 486,351 513,378 522,378 486,342 486,333 531,378 540,378 
		486,324 486,315 549,378 558,378 486,306 486,297 	"/>
	<polygon class="st1" points="567,738 576,738 486,648 477,648 396,567 396,576 468,648 459,648 396,585 396,594 450,648 441,648 
		396,603 396,612 432,648 423,648 396,621 396,630 414,648 405,648 396,639 396,648 387,648 396,657 396,666 378,648 369,648 
		396,675 396,684 360,648 351,648 396,693 396,702 342,648 333,648 396,711 396,720 324,648 315,648 396,729 396,738 486,738 
		486,729 495,738 504,738 486,720 486,711 513,738 522,738 486,702 486,693 531,738 540,738 486,684 486,675 549,738 558,738 
		486,666 486,657 	"/>
	<polygon class="st3" points="567,558 576,558 486,468 477,468 396,387 396,396 468,468 459,468 396,405 396,414 450,468 441,468 
		396,423 396,432 432,468 423,468 396,441 396,450 414,468 405,468 396,459 396,468 387,468 396,477 396,486 378,468 369,468 
		396,495 396,504 360,468 351,468 396,513 396,522 342,468 333,468 396,531 396,540 324,468 315,468 396,549 396,558 486,648 
		486,639 405,558 414,558 486,630 486,621 423,558 432,558 486,612 486,603 441,558 450,558 486,594 486,585 459,558 468,558 
		486,576 486,567 477,558 486,558 486,549 495,558 504,558 486,540 486,531 513,558 522,558 486,522 486,513 531,558 540,558 
		486,504 486,495 549,558 558,558 486,486 486,477 	"/>
	<polygon class="st4" points="675,-72 756,9 756,0 684,-72 	"/>
	<polygon class="st4" points="693,-72 756,-9 756,-18 702,-72 	"/>
	<polygon class="st4" points="711,-72 756,-27 756,-36 720,-72 	"/>
	<polygon class="st4" points="729,-72 756,-45 756,-54 738,-72 	"/>
	<polygon class="st4" points="747,-72 756,-63 756,-72 	"/>
	<polygon class="st4" points="576,-162 666,-72 666,-81 585,-162 	"/>
	<polygon class="st4" points="594,-162 666,-90 666,-99 603,-162 	"/>
	<polygon class="st4" points="612,-162 666,-108 666,-117 621,-162 	"/>
	<polygon class="st4" points="630,-162 666,-126 666,-135 639,-162 	"/>
	<polygon class="st4" points="648,-162 666,-144 666,-153 657,-162 	"/>
	<polygon class="st4" points="675,108 756,189 756,180 684,108 	"/>
	<polygon class="st4" points="693,108 756,171 756,162 702,108 	"/>
	<polygon class="st4" points="711,108 756,153 756,144 720,108 	"/>
	<polygon class="st4" points="729,108 756,135 756,126 738,108 	"/>
	<polygon class="st4" points="747,108 756,117 756,108 	"/>
	<polygon class="st3" points="747,18 756,18 666,-72 657,-72 576,-153 576,-144 648,-72 639,-72 576,-135 576,-126 630,-72 621,-72 
		576,-117 576,-108 612,-72 603,-72 576,-99 576,-90 594,-72 585,-72 576,-81 576,-72 567,-72 576,-63 576,-54 558,-72 549,-72 
		576,-45 576,-36 540,-72 531,-72 576,-27 576,-18 522,-72 513,-72 576,-9 576,0 504,-72 495,-72 576,9 576,18 666,108 666,99 
		585,18 594,18 666,90 666,81 603,18 612,18 666,72 666,63 621,18 630,18 666,54 666,45 639,18 648,18 666,36 666,27 657,18 666,18 
		666,9 675,18 684,18 666,0 666,-9 693,18 702,18 666,-18 666,-27 711,18 720,18 666,-36 666,-45 729,18 738,18 666,-54 666,-63 	
		"/>
	<polygon class="st4" points="666,297 747,378 756,378 666,288 	"/>
	<polygon class="st4" points="675,288 756,369 756,360 684,288 	"/>
	<polygon class="st4" points="693,288 756,351 756,342 702,288 	"/>
	<polygon class="st4" points="711,288 756,333 756,324 720,288 	"/>
	<polygon class="st4" points="729,288 756,315 756,306 738,288 	"/>
	<polygon class="st4" points="747,288 756,297 756,288 	"/>
	<polygon class="st1" points="747,198 756,198 666,108 657,108 576,27 576,36 648,108 639,108 576,45 576,54 630,108 621,108 
		576,63 576,72 612,108 603,108 576,81 576,90 594,108 585,108 576,99 576,108 567,108 576,117 576,126 558,108 549,108 576,135 
		576,144 540,108 531,108 576,153 576,162 522,108 513,108 576,171 576,180 504,108 495,108 576,189 576,198 666,288 666,279 
		585,198 594,198 666,270 666,261 603,198 612,198 666,252 666,243 621,198 630,198 666,234 666,225 639,198 648,198 666,216 
		666,207 657,198 666,198 666,189 675,198 684,198 666,180 666,171 693,198 702,198 666,162 666,153 711,198 720,198 666,144 
		666,135 729,198 738,198 666,126 666,117 	"/>
	<polygon class="st4" points="675,468 756,549 756,540 684,468 	"/>
	<polygon class="st4" points="693,468 756,531 756,522 702,468 	"/>
	<polygon class="st4" points="711,468 756,513 756,504 720,468 	"/>
	<polygon class="st4" points="729,468 756,495 756,486 738,468 	"/>
	<polygon class="st4" points="747,468 756,477 756,468 	"/>
	<polygon class="st3" points="729,378 738,378 666,306 666,288 657,288 576,207 576,216 648,288 639,288 576,225 576,234 630,288 
		621,288 576,243 576,252 612,288 603,288 576,261 576,270 594,288 585,288 576,279 576,288 567,288 576,297 576,306 558,288 
		549,288 576,315 576,324 540,288 531,288 576,333 576,342 522,288 513,288 576,351 576,360 504,288 495,288 576,369 576,378 
		666,468 666,459 585,378 594,378 666,450 666,441 603,378 612,378 666,432 666,423 621,378 630,378 666,414 666,405 639,378 
		648,378 666,396 666,387 657,378 666,378 666,369 675,378 684,378 666,360 666,351 693,378 702,378 666,342 666,333 711,378 
		720,378 666,324 666,315 	"/>
	<polygon class="st4" points="675,648 756,729 756,720 684,648 	"/>
	<polygon class="st4" points="693,648 756,711 756,702 702,648 	"/>
	<polygon class="st4" points="711,648 756,693 756,684 720,648 	"/>
	<polygon class="st4" points="729,648 756,675 756,666 738,648 	"/>
	<polygon class="st4" points="747,648 756,657 756,648 	"/>
	<polygon class="st3" points="747,738 756,738 666,648 657,648 576,567 576,576 648,648 639,648 576,585 576,594 630,648 621,648 
		576,603 576,612 612,648 603,648 576,621 576,630 594,648 585,648 576,639 576,648 567,648 576,657 576,666 558,648 549,648 
		576,675 576,684 540,648 531,648 576,693 576,702 522,648 513,648 576,711 576,720 504,648 495,648 576,729 576,738 666,738 
		666,729 675,738 684,738 666,720 666,711 693,738 702,738 666,702 666,693 711,738 720,738 666,684 666,675 729,738 738,738 
		666,666 666,657 	"/>
	<polygon class="st1" points="747,558 756,558 666,468 657,468 576,387 576,396 648,468 639,468 576,405 576,414 630,468 621,468 
		576,423 576,432 612,468 603,468 576,441 576,450 594,468 585,468 576,459 576,468 567,468 576,477 576,486 558,468 549,468 
		576,495 576,504 540,468 531,468 576,513 576,522 522,468 513,468 576,531 576,540 504,468 495,468 576,549 576,558 666,648 
		666,639 585,558 594,558 666,630 666,621 603,558 612,558 666,612 666,603 621,558 630,558 666,594 666,585 639,558 648,558 
		666,576 666,567 657,558 666,558 666,549 675,558 684,558 666,540 666,531 693,558 702,558 666,522 666,513 711,558 720,558 
		666,504 666,495 729,558 738,558 666,486 666,477 	"/>
	<rect x="36" y="855" class="st5" width="90" height="90"/>
	<polygon class="st5" points="126,936 135,945 144,945 126,927 	"/>
	<polygon class="st5" points="126,918 153,945 162,945 126,909 	"/>
	<polygon class="st5" points="126,900 171,945 180,945 126,891 	"/>
	<polygon class="st5" points="126,882 189,945 198,945 126,873 	"/>
	<polygon class="st5" points="126,864 207,945 216,945 126,855 	"/>
	<polygon class="st5" points="135,855 216,936 216,927 144,855 	"/>
	<polygon class="st5" points="153,855 216,918 216,909 162,855 	"/>
	<polygon class="st5" points="171,855 216,900 216,891 180,855 	"/>
	<polygon class="st5" points="189,855 216,882 216,873 198,855 	"/>
	<polygon class="st5" points="207,855 216,864 216,855 	"/>
	<polygon class="st5" points="36,846 45,855 36,855 	"/>
	<polygon class="st5" points="36,837 54,855 63,855 36,828 	"/>
	<polygon class="st5" points="36,819 72,855 81,855 36,810 	"/>
	<polygon class="st5" points="36,801 90,855 99,855 36,792 	"/>
	<polygon class="st5" points="36,783 108,855 117,855 36,774 	"/>
	<polygon class="st5" points="36,765 126,855 126,846 45,765 	"/>
	<polygon class="st5" points="54,765 126,837 126,828 63,765 	"/>
	<polygon class="st5" points="72,765 126,819 126,810 81,765 	"/>
	<polygon class="st5" points="90,765 126,801 126,792 99,765 	"/>
	<polygon class="st5" points="108,765 126,783 126,774 117,765 	"/>
	<rect x="36" y="1035" class="st5" width="90" height="90"/>
	<polygon class="st5" points="126,1116 135,1125 144,1125 126,1107 	"/>
	<polygon class="st5" points="126,1098 153,1125 162,1125 126,1089 	"/>
	<polygon class="st5" points="126,1080 171,1125 180,1125 126,1071 	"/>
	<polygon class="st5" points="126,1062 189,1125 198,1125 126,1053 	"/>
	<polygon class="st5" points="126,1044 207,1125 216,1125 126,1035 	"/>
	<polygon class="st5" points="135,1035 216,1116 216,1107 144,1035 	"/>
	<polygon class="st5" points="153,1035 216,1098 216,1089 162,1035 	"/>
	<polygon class="st5" points="171,1035 216,1080 216,1071 180,1035 	"/>
	<polygon class="st5" points="189,1035 216,1062 216,1053 198,1035 	"/>
	<polygon class="st5" points="207,1035 216,1044 216,1035 	"/>
	<polygon class="st5" points="36,1026 45,1035 36,1035 	"/>
	<polygon class="st5" points="36,1017 54,1035 63,1035 36,1008 	"/>
	<polygon class="st5" points="36,999 72,1035 81,1035 36,990 	"/>
	<polygon class="st5" points="36,981 90,1035 99,1035 36,972 	"/>
	<polygon class="st5" points="36,963 108,1035 117,1035 36,954 	"/>
	<polygon class="st5" points="36,945 126,1035 126,1026 45,945 	"/>
	<polygon class="st5" points="54,945 126,1017 126,1008 63,945 	"/>
	<polygon class="st5" points="72,945 126,999 126,990 81,945 	"/>
	<polygon class="st5" points="90,945 126,981 126,972 99,945 	"/>
	<polygon class="st5" points="108,945 126,963 126,954 117,945 	"/>
	<rect x="36" y="1215" class="st5" width="90" height="90"/>
	<polygon class="st5" points="126,1296 135,1305 144,1305 126,1287 	"/>
	<polygon class="st5" points="126,1278 153,1305 162,1305 126,1269 	"/>
	<polygon class="st5" points="126,1260 171,1305 180,1305 126,1251 	"/>
	<polygon class="st5" points="126,1242 189,1305 198,1305 126,1233 	"/>
	<polygon class="st5" points="126,1224 207,1305 216,1305 126,1215 	"/>
	<polygon class="st5" points="135,1215 216,1296 216,1287 144,1215 	"/>
	<polygon class="st5" points="153,1215 216,1278 216,1269 162,1215 	"/>
	<polygon class="st5" points="171,1215 216,1260 216,1251 180,1215 	"/>
	<polygon class="st5" points="189,1215 216,1242 216,1233 198,1215 	"/>
	<polygon class="st5" points="207,1215 216,1224 216,1215 	"/>
	<polygon class="st5" points="36,1206 45,1215 36,1215 	"/>
	<polygon class="st5" points="36,1197 54,1215 63,1215 36,1188 	"/>
	<polygon class="st5" points="36,1179 72,1215 81,1215 36,1170 	"/>
	<polygon class="st5" points="36,1161 90,1215 99,1215 36,1152 	"/>
	<polygon class="st5" points="36,1143 108,1215 117,1215 36,1134 	"/>
	<polygon class="st5" points="36,1125 126,1215 126,1206 45,1125 	"/>
	<polygon class="st5" points="54,1125 126,1197 126,1188 63,1125 	"/>
	<polygon class="st5" points="72,1125 126,1179 126,1170 81,1125 	"/>
	<polygon class="st5" points="90,1125 126,1161 126,1152 99,1125 	"/>
	<polygon class="st5" points="108,1125 126,1143 126,1134 117,1125 	"/>
	<rect x="36" y="1395" class="st5" width="90" height="90"/>
	<polygon class="st5" points="126,1476 135,1485 144,1485 126,1467 	"/>
	<polygon class="st5" points="126,1458 153,1485 162,1485 126,1449 	"/>
	<polygon class="st5" points="126,1440 171,1485 180,1485 126,1431 	"/>
	<polygon class="st5" points="126,1422 189,1485 198,1485 126,1413 	"/>
	<polygon class="st5" points="126,1404 207,1485 216,1485 126,1395 	"/>
	<polygon class="st5" points="135,1395 216,1476 216,1467 144,1395 	"/>
	<polygon class="st5" points="153,1395 216,1458 216,1449 162,1395 	"/>
	<polygon class="st5" points="171,1395 216,1440 216,1431 180,1395 	"/>
	<polygon class="st5" points="189,1395 216,1422 216,1413 198,1395 	"/>
	<polygon class="st5" points="207,1395 216,1404 216,1395 	"/>
	<polygon class="st5" points="36,1386 45,1395 36,1395 	"/>
	<polygon class="st5" points="36,1377 54,1395 63,1395 36,1368 	"/>
	<polygon class="st5" points="36,1359 72,1395 81,1395 36,1350 	"/>
	<polygon class="st5" points="36,1341 90,1395 99,1395 36,1332 	"/>
	<polygon class="st5" points="36,1323 108,1395 117,1395 36,1314 	"/>
	<polygon class="st5" points="36,1305 126,1395 126,1386 45,1305 	"/>
	<polygon class="st5" points="54,1305 126,1377 126,1368 63,1305 	"/>
	<polygon class="st5" points="72,1305 126,1359 126,1350 81,1305 	"/>
	<polygon class="st5" points="90,1305 126,1341 126,1332 99,1305 	"/>
	<polygon class="st5" points="108,1305 126,1323 126,1314 117,1305 	"/>
	<rect x="36" y="1575" class="st5" width="90" height="90"/>
	<polygon class="st5" points="126,1656 135,1665 144,1665 126,1647 	"/>
	<polygon class="st5" points="126,1638 153,1665 162,1665 126,1629 	"/>
	<polygon class="st5" points="126,1620 171,1665 180,1665 126,1611 	"/>
	<polygon class="st5" points="126,1602 189,1665 198,1665 126,1593 	"/>
	<polygon class="st5" points="126,1584 207,1665 216,1665 126,1575 	"/>
	<polygon class="st5" points="135,1575 216,1656 216,1647 144,1575 	"/>
	<polygon class="st5" points="153,1575 216,1638 216,1629 162,1575 	"/>
	<polygon class="st5" points="171,1575 216,1620 216,1611 180,1575 	"/>
	<polygon class="st5" points="189,1575 216,1602 216,1593 198,1575 	"/>
	<polygon class="st5" points="207,1575 216,1584 216,1575 	"/>
	<polygon class="st5" points="36,1566 45,1575 36,1575 	"/>
	<polygon class="st5" points="36,1557 54,1575 63,1575 36,1548 	"/>
	<polygon class="st5" points="36,1539 72,1575 81,1575 36,1530 	"/>
	<polygon class="st5" points="36,1521 90,1575 99,1575 36,1512 	"/>
	<polygon class="st5" points="36,1503 108,1575 117,1575 36,1494 	"/>
	<polygon class="st5" points="36,1485 126,1575 126,1566 45,1485 	"/>
	<polygon class="st5" points="54,1485 126,1557 126,1548 63,1485 	"/>
	<polygon class="st5" points="72,1485 126,1539 126,1530 81,1485 	"/>
	<polygon class="st5" points="90,1485 126,1521 126,1512 99,1485 	"/>
	<polygon class="st5" points="108,1485 126,1503 126,1494 117,1485 	"/>
</g>
<g id="working_pattern" class="st0">
	<g class="st1">
		<polygon class="st2" points="-212.9,266.8 -217.2,262.5 -212.9,262.5 		"/>
		<polygon class="st2" points="-212.9,271.1 -221.5,262.5 -225.8,262.5 -212.9,275.5 		"/>
		<polygon class="st2" points="-212.9,279.8 -230.1,262.5 -234.4,262.5 -212.9,284.1 		"/>
		<polygon class="st2" points="-212.9,288.4 -238.8,262.5 -243.1,262.5 -212.9,292.7 		"/>
		<polygon class="st2" points="-212.9,297 -247.4,262.5 -251.7,262.5 -212.9,301.3 		"/>
		<polygon class="st2" points="-256,223.7 -260.3,219.4 -264.6,219.4 -256,228.1 		"/>
		<polygon class="st2" points="-256,232.4 -268.9,219.4 -273.2,219.4 -256,236.7 		"/>
		<polygon class="st2" points="-256,241 -277.5,219.4 -281.8,219.4 -256,245.3 		"/>
		<polygon class="st2" points="-256,249.6 -286.1,219.4 -290.5,219.4 -256,253.9 		"/>
		<polygon class="st2" points="-256,258.2 -294.8,219.4 -299.1,219.4 -256,262.5 		"/>
		<polygon class="st2" points="-217.2,305.6 -212.9,305.6 -256,262.5 -260.3,262.5 -299.1,223.7 -299.1,228.1 -264.6,262.5 
			-268.9,262.5 -299.1,232.4 -299.1,236.7 -273.2,262.5 -277.5,262.5 -299.1,241 -299.1,245.3 -281.8,262.5 -286.1,262.5 
			-299.1,249.6 -299.1,253.9 -290.5,262.5 -294.8,262.5 -299.1,258.2 -299.1,262.5 -299.3,262.6 -299.3,305.6 -256,305.6 
			-256,301.3 -251.7,305.6 -247.4,305.6 -256,297 -256,292.7 -243.1,305.6 -238.8,305.6 -256,288.4 -256,284.1 -234.4,305.6 
			-230.1,305.6 -256,279.8 -256,275.5 -225.8,305.6 -221.5,305.6 -256,271.1 -256,266.8 		"/>
		<rect x="-299.1" y="262.5" class="st6" width="43.2" height="43.2"/>
	</g>
</g>
<g id="Mask">
	<g id="back1" class="st0">
		<g class="st1">
			<polygon class="st7" points="154.6,93.8 149.3,90.8 153.5,89.6 			"/>
			<polygon class="st7" points="155.7,98 145.2,91.9 141,93 156.9,102.1 			"/>
			<polygon class="st7" points="158,106.3 136.9,94.1 132.7,95.2 159.1,110.4 			"/>
			<polygon class="st7" points="160.2,114.6 128.5,96.3 124.4,97.4 161.3,118.8 			"/>
			<polygon class="st7" points="162.4,122.9 120.2,98.6 116.1,99.7 163.6,127.1 			"/>
			<polygon class="st7" points="164.7,131.3 111.9,100.8 113,105 160.5,132.4 			"/>
			<polygon class="st7" points="156.3,133.5 114.1,109.1 115.2,113.3 152.2,134.6 			"/>
			<polygon class="st7" points="148,135.7 116.3,117.4 117.5,121.6 143.9,136.8 			"/>
			<polygon class="st7" points="139.7,138 118.6,125.8 119.7,129.9 135.5,139.1 			"/>
			<polygon class="st7" points="131.4,140.2 120.8,134.1 121.9,138.3 127.2,141.3 			"/>
		</g>
		<g class="st1">
			<polygon class="st7" points="237.9,71.5 232.6,68.4 236.8,67.3 			"/>
			<polygon class="st7" points="239,75.7 228.4,69.6 224.3,70.7 240.1,79.8 			"/>
			<polygon class="st7" points="241.2,84 220.1,71.8 215.9,72.9 242.3,88.1 			"/>
			<polygon class="st7" points="243.5,92.3 211.8,74 207.6,75.1 244.6,96.5 			"/>
			<polygon class="st7" points="245.7,100.6 203.5,76.3 199.3,77.4 246.8,104.8 			"/>
			<polygon class="st7" points="247.9,109 195.1,78.5 196.3,82.6 243.8,110.1 			"/>
			<polygon class="st7" points="239.6,111.2 197.4,86.8 198.5,91 235.4,112.3 			"/>
			<polygon class="st7" points="231.3,113.4 199.6,95.1 200.7,99.3 227.1,114.5 			"/>
			<polygon class="st7" points="222.9,115.6 201.8,103.5 202.9,107.6 218.8,116.8 			"/>
			<polygon class="st7" points="214.6,117.9 204.1,111.8 205.2,115.9 210.5,119 			"/>
		</g>
		<g class="st1">
			<polygon class="st7" points="185.1,41 179.8,38 175.7,39.1 186.2,45.2 			"/>
			<polygon class="st7" points="187.3,49.3 171.5,40.2 167.3,41.3 188.4,53.5 			"/>
			<polygon class="st7" points="189.6,57.7 163.2,42.4 159,43.6 190.7,61.8 			"/>
			<polygon class="st7" points="191.8,66 154.8,44.7 150.7,45.8 192.9,70.2 			"/>
			<polygon class="st7" points="194,74.3 146.5,46.9 142.4,48 195.1,78.5 			"/>
			<polygon class="st7" points="191,79.6 186.8,80.7 144.6,56.3 143.5,52.2 			"/>
			<polygon class="st7" points="182.6,81.8 145.7,60.5 146.8,64.7 178.5,82.9 			"/>
			<polygon class="st7" points="174.3,84.1 147.9,68.8 149.1,73 170.2,85.2 			"/>
			<polygon class="st7" points="166,86.3 150.2,77.1 151.3,81.3 161.8,87.4 			"/>
			<polygon class="st7" points="157.7,88.5 152.4,85.5 153.5,89.6 			"/>
		</g>
		<g class="st1">
			<polygon class="st7" points="207.4,124.3 202.1,121.2 198,122.3 208.5,128.4 			"/>
			<polygon class="st7" points="209.6,132.6 193.8,123.5 189.6,124.6 210.8,136.8 			"/>
			<polygon class="st7" points="211.9,140.9 185.5,125.7 181.3,126.8 213,145.1 			"/>
			<polygon class="st7" points="214.1,149.2 177.2,127.9 173,129 215.2,153.4 			"/>
			<polygon class="st7" points="216.3,157.6 168.8,130.1 164.7,131.3 217.4,161.7 			"/>
			<polygon class="st7" points="213.3,162.8 209.1,164 166.9,139.6 165.8,135.4 			"/>
			<polygon class="st7" points="205,165.1 168,143.7 169.1,147.9 200.8,166.2 			"/>
			<polygon class="st7" points="196.6,167.3 170.2,152.1 171.4,156.2 192.5,168.4 			"/>
			<polygon class="st7" points="188.3,169.5 172.5,160.4 173.6,164.6 184.1,170.7 			"/>
			<polygon class="st7" points="180,171.8 174.7,168.7 175.8,172.9 			"/>
		</g>
		
			<rect x="158.4" y="83.3" transform="matrix(-0.9659 0.2588 -0.2588 -0.9659 380.8144 159.6067)" class="st8" width="43.1" height="43.1"/>
		<g class="st1">
			<polygon class="st7" points="101.8,63.3 96.6,60.3 92.4,61.4 103,67.5 			"/>
			<polygon class="st7" points="104.1,71.7 88.2,62.5 84.1,63.6 105.2,75.8 			"/>
			<polygon class="st7" points="106.3,80 79.9,64.7 75.8,65.9 107.4,84.1 			"/>
			<polygon class="st7" points="108.5,88.3 71.6,67 67.4,68.1 109.7,92.5 			"/>
			<polygon class="st7" points="110.8,96.6 63.3,69.2 59.1,70.3 111.9,100.8 			"/>
			<polygon class="st7" points="107.7,101.9 103.6,103 61.3,78.6 60.2,74.5 			"/>
			<polygon class="st7" points="99.4,104.1 62.5,82.8 63.6,87 95.2,105.3 			"/>
			<polygon class="st7" points="91.1,106.4 64.7,91.1 65.8,95.3 86.9,107.5 			"/>
			<polygon class="st7" points="82.8,108.6 66.9,99.5 68,103.6 78.6,109.7 			"/>
			<polygon class="st7" points="74.4,110.8 69.1,107.8 70.3,111.9 			"/>
		</g>
		<g class="st1">
			<polygon class="st7" points="124.2,146.6 118.9,143.5 114.7,144.6 125.3,150.7 			"/>
			<polygon class="st7" points="126.4,154.9 110.6,145.8 106.4,146.9 127.5,159.1 			"/>
			<polygon class="st7" points="128.6,163.2 102.2,148 98.1,149.1 129.7,167.4 			"/>
			<polygon class="st7" points="130.8,171.5 93.9,150.2 89.7,151.3 132,175.7 			"/>
			<polygon class="st7" points="133.1,179.9 85.6,152.5 81.4,153.6 134.2,184 			"/>
			<polygon class="st7" points="130,185.2 125.9,186.3 83.6,161.9 82.5,157.7 			"/>
			<polygon class="st7" points="121.7,187.4 84.8,166.1 85.9,170.2 117.5,188.5 			"/>
			<polygon class="st7" points="113.4,189.6 87,174.4 88.1,178.5 109.2,190.7 			"/>
			<polygon class="st7" points="105.1,191.8 89.2,182.7 90.3,186.9 100.9,193 			"/>
			<polygon class="st7" points="96.7,194.1 91.5,191 92.6,195.2 			"/>
		</g>
		
			<rect x="75.1" y="105.6" transform="matrix(-0.9659 0.2588 -0.2588 -0.9659 222.9258 225.0063)" class="st8" width="43.1" height="43.1"/>
		<g class="st1">
			<polygon class="st7" points="268.3,18.7 263.1,15.7 258.9,16.8 269.5,22.9 			"/>
			<polygon class="st7" points="270.6,27 254.7,17.9 250.6,19 271.7,31.2 			"/>
			<polygon class="st7" points="272.8,35.4 246.4,20.1 242.3,21.2 273.9,39.5 			"/>
			<polygon class="st7" points="275,43.7 238.1,22.4 233.9,23.5 276.2,47.9 			"/>
			<polygon class="st7" points="277.3,52 229.8,24.6 225.6,25.7 278.4,56.2 			"/>
			<polygon class="st7" points="274.2,57.3 270.1,58.4 227.8,34 226.7,29.9 			"/>
			<polygon class="st7" points="265.9,59.5 229,38.2 230.1,42.4 261.7,60.6 			"/>
			<polygon class="st7" points="257.6,61.8 231.2,46.5 232.3,50.7 253.4,62.9 			"/>
			<polygon class="st7" points="249.2,64 233.4,54.8 234.5,59 245.1,65.1 			"/>
			<polygon class="st7" points="240.9,66.2 235.6,63.2 236.8,67.3 			"/>
		</g>
		<g class="st1">
			<polygon class="st7" points="290.7,102 285.4,98.9 281.2,100 291.8,106.1 			"/>
			<polygon class="st7" points="292.9,110.3 277.1,101.1 272.9,102.3 294,114.4 			"/>
			<polygon class="st7" points="295.1,118.6 268.7,103.4 264.6,104.5 296.2,122.8 			"/>
			<polygon class="st7" points="297.3,126.9 260.4,105.6 256.2,106.7 298.5,131.1 			"/>
			<polygon class="st7" points="299.6,135.3 252.1,107.8 247.9,109 300.7,139.4 			"/>
			<polygon class="st7" points="296.5,140.5 292.4,141.7 250.1,117.3 249,113.1 			"/>
			<polygon class="st7" points="288.2,142.8 251.3,121.4 252.4,125.6 284,143.9 			"/>
			<polygon class="st7" points="279.9,145 253.5,129.8 254.6,133.9 275.7,146.1 			"/>
			<polygon class="st7" points="271.6,147.2 255.7,138.1 256.8,142.3 267.4,148.3 			"/>
			<polygon class="st7" points="263.2,149.5 258,146.4 259.1,150.6 			"/>
		</g>
		
			<rect x="241.6" y="61" transform="matrix(-0.9659 0.2588 -0.2588 -0.9659 538.7045 94.2065)" class="st8" width="43.1" height="43.1"/>
		<g class="st1">
			<polygon class="st7" points="132.3,10.6 127,7.5 131.2,6.4 			"/>
			<polygon class="st7" points="133.4,14.7 122.9,8.6 118.7,9.7 134.6,18.9 			"/>
			<polygon class="st7" points="135.7,23 114.6,10.8 110.4,12 136.8,27.2 			"/>
			<polygon class="st7" points="137.9,31.4 106.2,13.1 102.1,14.2 139,35.5 			"/>
			<polygon class="st7" points="140.1,39.7 97.9,15.3 93.7,16.4 141.2,43.8 			"/>
			<polygon class="st7" points="142.4,48 89.6,17.5 90.7,21.7 138.2,49.1 			"/>
			<polygon class="st7" points="134,50.2 91.8,25.9 92.9,30 129.9,51.4 			"/>
			<polygon class="st7" points="125.7,52.5 94,34.2 95.2,38.4 121.5,53.6 			"/>
			<polygon class="st7" points="117.4,54.7 96.3,42.5 97.4,46.7 113.2,55.8 			"/>
			<polygon class="st7" points="109.1,56.9 98.5,50.8 99.6,55 104.9,58 			"/>
		</g>
		<g class="st1">
			<polygon class="st7" points="215.6,-11.8 210.3,-14.8 214.5,-15.9 			"/>
			<polygon class="st7" points="216.7,-7.6 206.1,-13.7 202,-12.6 217.8,-3.4 			"/>
			<polygon class="st7" points="218.9,0.7 197.8,-11.5 193.6,-10.3 220,4.9 			"/>
			<polygon class="st7" points="221.1,9.1 189.5,-9.2 185.3,-8.1 222.3,13.2 			"/>
			<polygon class="st7" points="223.4,17.4 181.2,-7 177,-5.9 224.5,21.5 			"/>
			<polygon class="st7" points="225.6,25.7 172.8,-4.8 173.9,-0.6 221.4,26.8 			"/>
			<polygon class="st7" points="217.3,27.9 175.1,3.6 176.2,7.7 213.1,29.1 			"/>
			<polygon class="st7" points="209,30.2 177.3,11.9 178.4,16 204.8,31.3 			"/>
			<polygon class="st7" points="200.6,32.4 179.5,20.2 180.6,24.4 196.5,33.5 			"/>
			<polygon class="st7" points="192.3,34.6 181.8,28.5 182.9,32.7 188.1,35.7 			"/>
		</g>
		<g class="st1">
			<polygon class="st7" points="162.8,-42.2 157.5,-45.3 153.4,-44.2 163.9,-38.1 			"/>
			<polygon class="st7" points="165,-33.9 149.2,-43 145,-41.9 166.1,-29.7 			"/>
			<polygon class="st7" points="167.3,-25.6 140.9,-40.8 136.7,-39.7 168.4,-21.4 			"/>
			<polygon class="st7" points="169.5,-17.3 132.5,-38.6 128.4,-37.5 170.6,-13.1 			"/>
			<polygon class="st7" points="171.7,-8.9 124.2,-36.4 120.1,-35.2 172.8,-4.8 			"/>
			<polygon class="st7" points="168.7,-3.7 164.5,-2.5 122.3,-26.9 121.2,-31.1 			"/>
			<polygon class="st7" points="160.3,-1.4 123.4,-22.7 124.5,-18.6 156.2,-0.3 			"/>
			<polygon class="st7" points="152,0.8 125.6,-14.4 126.7,-10.3 147.9,1.9 			"/>
			<polygon class="st7" points="143.7,3 127.9,-6.1 129,-1.9 139.5,4.2 			"/>
			<polygon class="st7" points="135.4,5.3 130.1,2.2 131.2,6.4 			"/>
		</g>
		
			<rect x="136" y="0.1" transform="matrix(-0.9659 0.2588 -0.2588 -0.9659 315.416 1.7208)" class="st8" width="43.1" height="43.1"/>
		<g class="st1">
			<polygon class="st7" points="79.5,-19.9 74.3,-23 70.1,-21.9 80.7,-15.8 			"/>
			<polygon class="st7" points="81.8,-11.6 65.9,-20.7 61.8,-19.6 82.9,-7.4 			"/>
			<polygon class="st7" points="84,-3.3 57.6,-18.5 53.5,-17.4 85.1,0.9 			"/>
			<polygon class="st7" points="86.2,5.1 49.3,-16.3 45.1,-15.2 87.4,9.2 			"/>
			<polygon class="st7" points="88.5,13.4 41,-14 36.8,-12.9 89.6,17.5 			"/>
			<polygon class="st7" points="85.4,18.7 81.3,19.8 39,-4.6 37.9,-8.8 			"/>
			<polygon class="st7" points="77.1,20.9 40.1,-0.4 41.3,3.7 72.9,22 			"/>
			<polygon class="st7" points="68.8,23.1 42.4,7.9 43.5,12 64.6,24.2 			"/>
			<polygon class="st7" points="60.4,25.3 44.6,16.2 45.7,20.4 56.3,26.5 			"/>
			<polygon class="st7" points="52.1,27.6 46.8,24.5 48,28.7 			"/>
		</g>
		
			<rect x="52.8" y="22.4" transform="matrix(-0.9659 0.2588 -0.2588 -0.9659 157.5273 67.1204)" class="st8" width="43.1" height="43.1"/>
		<g class="st1">
			<polygon class="st7" points="246,-64.5 240.8,-67.6 236.6,-66.5 247.2,-60.4 			"/>
			<polygon class="st7" points="248.3,-56.2 232.4,-65.4 228.3,-64.2 249.4,-52 			"/>
			<polygon class="st7" points="250.5,-47.9 224.1,-63.1 220,-62 251.6,-43.7 			"/>
			<polygon class="st7" points="252.7,-39.6 215.8,-60.9 211.6,-59.8 253.8,-35.4 			"/>
			<polygon class="st7" points="255,-31.2 207.5,-58.7 203.3,-57.5 256.1,-27.1 			"/>
			<polygon class="st7" points="251.9,-26 247.8,-24.8 205.5,-49.2 204.4,-53.4 			"/>
			<polygon class="st7" points="243.6,-23.7 206.6,-45.1 207.8,-40.9 239.4,-22.6 			"/>
			<polygon class="st7" points="235.3,-21.5 208.9,-36.7 210,-32.6 231.1,-20.4 			"/>
			<polygon class="st7" points="226.9,-19.3 211.1,-28.4 212.2,-24.2 222.8,-18.1 			"/>
			<polygon class="st7" points="218.6,-17 213.3,-20.1 214.5,-15.9 			"/>
		</g>
		
			<rect x="219.3" y="-22.2" transform="matrix(-0.9659 0.2588 -0.2588 -0.9659 473.306 -63.6794)" class="st8" width="43.1" height="43.1"/>
		<g class="st1">
			<polygon class="st7" points="71.2,115.6 66,112.5 70.1,111.4 			"/>
			<polygon class="st7" points="72.4,119.7 61.8,113.7 57.6,114.8 73.5,123.9 			"/>
			<polygon class="st7" points="74.6,128.1 53.5,115.9 49.3,117 75.7,132.2 			"/>
			<polygon class="st7" points="76.8,136.4 45.2,118.1 41,119.2 77.9,140.6 			"/>
			<polygon class="st7" points="79,144.7 36.8,120.3 32.7,121.5 80.2,148.9 			"/>
			<polygon class="st7" points="81.3,153 28.5,122.6 29.6,126.7 77.1,154.2 			"/>
			<polygon class="st7" points="73,155.3 30.7,130.9 31.8,135.1 68.8,156.4 			"/>
			<polygon class="st7" points="64.6,157.5 33,139.2 34.1,143.4 60.5,158.6 			"/>
			<polygon class="st7" points="56.3,159.7 35.2,147.5 36.3,151.7 52.1,160.9 			"/>
			<polygon class="st7" points="48,162 37.4,155.9 38.5,160 43.8,163.1 			"/>
		</g>
		<g class="st1">
			<polygon class="st7" points="18.5,85.1 13.2,82.1 9,83.2 19.6,89.3 			"/>
			<polygon class="st7" points="20.7,93.4 4.9,84.3 0.7,85.4 21.8,97.6 			"/>
			<polygon class="st7" points="22.9,101.8 -3.5,86.5 -7.6,87.6 24,105.9 			"/>
			<polygon class="st7" points="25.2,110.1 -11.8,88.8 -16,89.9 26.3,114.3 			"/>
			<polygon class="st7" points="27.4,118.4 -20.1,91 -24.3,92.1 28.5,122.6 			"/>
			<polygon class="st7" points="24.3,123.7 20.2,124.8 -22,100.4 -23.2,96.3 			"/>
			<polygon class="st7" points="16,125.9 -20.9,104.6 -19.8,108.8 11.9,127 			"/>
			<polygon class="st7" points="7.7,128.2 -18.7,112.9 -17.6,117.1 3.5,129.3 			"/>
			<polygon class="st7" points="-0.6,130.4 -16.5,121.2 -15.4,125.4 -4.8,131.5 			"/>
			<polygon class="st7" points="-9,132.6 -14.2,129.6 -13.1,133.7 			"/>
		</g>
		<g class="st1">
			<polygon class="st7" points="40.8,168.4 35.5,165.3 31.3,166.4 41.9,172.5 			"/>
			<polygon class="st7" points="43,176.7 27.2,167.5 23,168.7 44.1,180.8 			"/>
			<polygon class="st7" points="45.2,185 18.8,169.8 14.7,170.9 46.3,189.2 			"/>
			<polygon class="st7" points="47.5,193.3 10.5,172 6.4,173.1 48.6,197.5 			"/>
			<polygon class="st7" points="49.7,201.7 2.2,174.2 -2,175.4 50.8,205.8 			"/>
			<polygon class="st7" points="46.6,206.9 42.5,208.1 0.3,183.7 -0.9,179.5 			"/>
			<polygon class="st7" points="38.3,209.2 1.4,187.8 2.5,192 34.2,210.3 			"/>
			<polygon class="st7" points="30,211.4 3.6,196.2 4.7,200.3 25.8,212.5 			"/>
			<polygon class="st7" points="21.7,213.6 5.8,204.5 7,208.7 17.5,214.7 			"/>
			<polygon class="st7" points="13.3,215.9 8.1,212.8 9.2,217 			"/>
		</g>
		
			<rect x="-8.3" y="127.4" transform="matrix(-0.9659 0.2588 -0.2588 -0.9659 64.6312 289.418)" class="st8" width="43.1" height="43.1"/>
		<g class="st1">
			<polygon class="st7" points="48.9,32.3 43.7,29.3 47.8,28.2 			"/>
			<polygon class="st7" points="50,36.5 39.5,30.4 35.3,31.5 51.2,40.7 			"/>
			<polygon class="st7" points="52.3,44.8 31.2,32.6 27,33.8 53.4,49 			"/>
			<polygon class="st7" points="54.5,53.1 22.8,34.9 18.7,36 55.6,57.3 			"/>
			<polygon class="st7" points="56.7,61.5 14.5,37.1 10.4,38.2 57.9,65.6 			"/>
			<polygon class="st7" points="59,69.8 6.2,39.3 7.3,43.5 54.8,70.9 			"/>
			<polygon class="st7" points="50.6,72 8.4,47.7 9.5,51.8 46.5,73.1 			"/>
			<polygon class="st7" points="42.3,74.3 10.7,56 11.8,60.1 38.2,75.4 			"/>
			<polygon class="st7" points="34,76.5 12.9,64.3 14,68.5 29.8,77.6 			"/>
			<polygon class="st7" points="25.7,78.7 15.1,72.6 16.2,76.8 21.5,79.8 			"/>
		</g>
		<g class="st1">
			<polygon class="st7" points="-3.8,1.9 -9.1,-1.2 -13.3,-0.1 -2.7,6 			"/>
			<polygon class="st7" points="-1.6,10.2 -17.4,1 -21.6,2.2 -0.5,14.4 			"/>
			<polygon class="st7" points="0.6,18.5 -25.8,3.3 -29.9,4.4 1.7,22.7 			"/>
			<polygon class="st7" points="2.8,26.8 -34.1,5.5 -38.3,6.6 4,31 			"/>
			<polygon class="st7" points="5.1,35.2 -42.4,7.7 -46.6,8.9 6.2,39.3 			"/>
			<polygon class="st7" points="2,40.4 -2.1,41.6 -44.4,17.2 -45.5,13 			"/>
			<polygon class="st7" points="-6.3,42.7 -43.2,21.3 -42.1,25.5 -10.5,43.8 			"/>
			<polygon class="st7" points="-14.6,44.9 -41,29.7 -39.9,33.8 -18.8,46 			"/>
			<polygon class="st7" points="-22.9,47.1 -38.8,38 -37.7,42.2 -27.1,48.2 			"/>
			<polygon class="st7" points="-31.3,49.4 -36.5,46.3 -35.4,50.5 			"/>
		</g>
		
			<rect x="-30.6" y="44.2" transform="matrix(-0.9659 0.2588 -0.2588 -0.9659 -0.7673 131.5321)" class="st8" width="43.1" height="43.1"/>
	</g>
	<g>
		<defs>
			<rect id="SVGID_1_" width="252" height="144"/>
		</defs>
		<clipPath id="SVGID_2_">
			<use xlink:href="#SVGID_1_"  style="overflow:visible;"/>
		</clipPath>
		<g class="st9">
			<polygon id="back2" class="st10" points="256.5,148.5 -4.6,148.5 -4.5,-4.5 256.5,-4.5 			"/>
			<g>
				<g>
					<polygon class="st7" points="-46,9 6.6,39.4 5.5,35.3 -41.9,7.9 					"/>
					<polygon class="st7" points="-37.7,6.8 4.4,31.1 3.3,27 -33.6,5.7 					"/>
					<polygon class="st7" points="-29.4,4.6 2.2,22.8 1.1,18.7 -25.3,3.5 					"/>
					<polygon class="st7" points="-21.1,2.4 0,14.5 -1.1,10.4 -16.9,1.2 					"/>
					<polygon class="st7" points="-12.8,0.1 -2.3,6.2 -3.4,2.1 -8.6,-1 					"/>
				</g>
				<g>
					<polygon class="st7" points="37.1,-13.2 89.7,17.2 88.6,13 41.2,-14.3 					"/>
					<polygon class="st7" points="45.4,-15.5 87.5,8.9 86.4,4.7 49.5,-16.6 					"/>
					<polygon class="st7" points="53.7,-17.7 85.3,0.6 84.2,-3.6 57.8,-18.8 					"/>
					<polygon class="st7" points="62,-19.9 83,-7.7 81.9,-11.9 66.1,-21 					"/>
					<polygon class="st7" points="70.3,-22.1 80.8,-16.1 79.7,-20.2 74.4,-23.2 					"/>
				</g>
				<g>
					<polygon class="st7" points="120.1,-35.5 172.8,-5.1 171.7,-9.2 124.3,-36.6 					"/>
					<polygon class="st7" points="128.4,-37.7 170.6,-13.4 169.4,-17.5 132.6,-38.8 					"/>
					<polygon class="st7" points="136.7,-39.9 168.3,-21.7 167.2,-25.8 140.9,-41.1 					"/>
					<polygon class="st7" points="145,-42.2 166.1,-30 165,-34.2 149.2,-43.3 					"/>
					<polygon class="st7" points="153.3,-44.4 163.9,-38.3 162.8,-42.5 157.5,-45.5 					"/>
				</g>
				<polygon class="st7" points="203.2,-57.7 255.9,-27.3 254.7,-31.5 207.3,-58.9 				"/>
				<polygon class="st7" points="211.5,-60 253.6,-35.6 252.5,-39.8 215.6,-61.1 				"/>
				<polygon class="st7" points="219.8,-62.2 251.4,-44 250.3,-48.1 224,-63.3 				"/>
				<polygon class="st7" points="228.1,-64.4 249.2,-52.3 248.1,-56.4 232.3,-65.5 				"/>
				<polygon class="st7" points="236.4,-66.6 246.9,-60.6 245.8,-64.7 240.6,-67.8 				"/>
				<polygon class="st7" points="343.1,-50.7 390.5,-23.3 389.4,-27.5 347.2,-51.8 				"/>
				<polygon class="st7" points="351.4,-52.9 388.2,-31.7 387.1,-35.8 355.5,-54 				"/>
				<polygon class="st7" points="359.7,-55.2 386,-40 384.9,-44.1 363.8,-56.3 				"/>
				<polygon class="st7" points="368,-57.4 383.8,-48.3 382.7,-52.4 372.1,-58.5 				"/>
				<polygon class="st7" points="376.3,-59.6 381.6,-56.6 380.5,-60.7 				"/>
				<polygon class="st7" points="286.3,-80 338.9,-49.6 337.8,-53.8 290.4,-81.1 				"/>
				<polygon class="st7" points="294.6,-82.2 336.7,-57.9 335.6,-62.1 298.7,-83.3 				"/>
				<polygon class="st7" points="302.9,-84.5 334.5,-66.2 333.4,-70.4 307,-85.6 				"/>
				<polygon class="st7" points="311.2,-86.7 332.2,-74.5 331.1,-78.7 315.3,-87.8 				"/>
				<polygon class="st7" points="319.5,-88.9 330,-82.8 328.9,-87 323.6,-90 				"/>
				<polygon class="st7" points="365.3,32.4 412.7,59.7 411.6,55.6 369.5,31.2 				"/>
				<polygon class="st7" points="373.6,30.1 410.5,51.4 409.4,47.3 377.8,29 				"/>
				<polygon class="st7" points="381.9,27.9 408.3,43.1 407.2,39 386.1,26.8 				"/>
				<polygon class="st7" points="390.3,25.7 406.1,34.8 404.9,30.6 394.4,24.6 				"/>
				<polygon class="st7" points="398.6,23.5 403.8,26.5 402.7,22.3 				"/>
				<polygon class="st7" points="384.6,120.7 431.9,148.1 436.1,146.9 383.4,116.5 				"/>
				<polygon class="st7" points="387.6,115.4 435,142.8 433.9,138.6 391.7,114.3 				"/>
				<polygon class="st7" points="395.9,113.2 432.8,134.5 431.7,130.3 400.1,112.1 				"/>
				<polygon class="st7" points="404.2,111 430.5,126.2 429.4,122 408.4,109.9 				"/>
				<polygon class="st7" points="412.5,108.7 428.3,117.9 427.2,113.7 416.7,107.6 				"/>
				<polygon class="st7" points="420.8,106.5 426.1,109.6 425,105.4 				"/>
				<polygon class="st7" points="409.9,198.5 457.2,225.9 456.1,221.7 414,197.4 				"/>
				<polygon class="st7" points="418.2,196.3 455,217.6 453.9,213.4 422.3,195.2 				"/>
				<polygon class="st7" points="426.5,194 452.8,209.2 451.7,205.1 430.6,192.9 				"/>
				<polygon class="st7" points="434.8,191.8 450.6,200.9 449.5,196.8 438.9,190.7 				"/>
				<polygon class="st7" points="443.1,189.6 448.3,192.6 447.2,188.5 				"/>
				<polygon class="st7" points="432.1,281.6 479.5,308.9 478.4,304.8 436.3,280.5 				"/>
				<polygon class="st7" points="440.4,279.3 477.3,300.6 476.2,296.5 444.6,278.2 				"/>
				<polygon class="st7" points="448.7,277.1 475.1,292.3 473.9,288.2 452.9,276 				"/>
				<polygon class="st7" points="457,274.9 472.8,284 471.7,279.9 461.2,273.8 				"/>
				<polygon class="st7" points="465.3,272.7 470.6,275.7 469.5,271.5 				"/>
				<g>
					<polygon class="st7" points="55.2,71 59.3,69.8 6.6,39.4 2.5,40.5 -44.9,13.2 -43.8,17.3 -1.7,41.7 -5.8,42.8 -42.7,21.5 
						-41.6,25.6 -10,43.9 -14.1,45 -40.5,29.8 -39.3,34 -18.3,46.1 -22.4,47.2 -38.2,38.1 -37.1,42.3 -26.6,48.3 -30.7,49.5 
						-36,46.4 -34.9,50.6 -23.8,92.1 28.9,122.5 27.8,118.4 -19.6,91 -15.5,89.9 26.7,114.2 25.6,110 -11.3,88.8 -7.1,87.6 
						24.5,105.9 23.3,101.7 -3,86.5 1.2,85.4 22.2,97.6 21.1,93.4 5.3,84.3 9.5,83.2 20,89.3 18.9,85.1 13.6,82.1 17.8,81 
						16.7,76.8 21.9,79.9 26.1,78.7 15.5,72.7 14.4,68.5 30.2,77.6 34.4,76.5 13.3,64.4 12.2,60.2 38.5,75.4 42.7,74.3 11.1,56 
						10,51.9 46.8,73.2 51,72.1 8.9,47.7 7.8,43.6 					"/>
					<polygon class="st7" points="77.4,154 81.6,152.9 28.9,122.5 24.8,123.6 -22.6,96.3 -21.5,100.4 20.6,124.7 16.4,125.8 
						-20.4,104.6 -19.3,108.7 12.3,127 8.1,128.1 -18.2,112.9 -17.1,117 4,129.2 -0.2,130.3 -16,121.2 -14.9,125.3 -4.3,131.4 
						-8.5,132.5 -13.7,129.5 -12.6,133.6 -1.5,175.2 51.2,205.6 50,201.4 2.7,174.1 6.8,172.9 48.9,197.3 47.8,193.1 11,171.8 
						15.1,170.7 46.7,189 45.6,184.8 19.3,169.6 23.4,168.5 44.5,180.7 43.4,176.5 27.6,167.4 31.7,166.3 42.3,172.3 41.1,168.2 
						35.9,165.2 40,164 38.9,159.9 44.2,162.9 48.3,161.8 37.8,155.7 36.7,151.6 52.5,160.7 56.6,159.6 35.6,147.4 34.5,143.3 
						60.8,158.5 65,157.4 33.4,139.1 32.2,135 69.1,156.2 73.3,155.1 31.1,130.8 30,126.7 					"/>
					<polygon class="st7" points="99.7,237.1 103.8,236 51.2,205.6 47,206.7 -0.4,179.3 0.7,183.5 42.9,207.8 38.7,208.9 1.8,187.6 
						3,191.8 34.5,210 30.4,211.1 4.1,195.9 5.2,200.1 26.2,212.3 22.1,213.4 6.3,204.2 7.4,208.4 17.9,214.5 13.8,215.6 8.5,212.5 
						9.6,216.7 20.8,258.2 73.4,288.6 72.3,284.5 24.9,257.1 29.1,256 71.2,280.3 70.1,276.2 33.2,254.9 37.4,253.8 69,272 
						67.9,267.9 41.5,252.7 45.7,251.6 66.7,263.7 65.6,259.6 49.8,250.4 54,249.3 64.5,255.4 63.4,251.3 58.1,248.2 62.3,247.1 
						61.2,243 66.4,246 70.6,244.9 60.1,238.8 59,234.6 74.8,243.8 78.9,242.7 57.8,230.5 56.7,226.3 83.1,241.5 87.2,240.4 
						55.6,222.2 54.5,218 91.4,239.3 95.5,238.2 53.4,213.9 52.3,209.7 					"/>
					<polygon class="st7" points="144.2,403.2 148.3,402.1 95.7,371.7 91.5,372.8 44.1,345.5 45.2,349.6 87.4,373.9 83.2,375 
						46.4,353.8 47.5,357.9 79.1,376.2 74.9,377.3 48.6,362.1 49.7,366.2 70.8,378.4 66.6,379.5 50.8,370.4 51.9,374.5 62.5,380.6 
						58.3,381.7 53,378.7 54.1,382.8 65.3,424.4 106.8,413.2 105.7,409.1 111,412.1 115.1,411 104.6,404.9 103.5,400.8 119.3,409.9 
						123.4,408.8 102.4,396.6 101.2,392.5 127.6,407.7 131.7,406.6 100.1,388.3 99,384.2 135.9,405.5 140,404.3 97.9,380 
						96.8,375.9 					"/>
					<polygon class="st7" points="121.9,320.2 126.1,319 73.4,288.6 69.3,289.8 21.9,262.4 23,266.5 65.1,290.9 61,292 24.1,270.7 
						25.2,274.9 56.8,293.1 52.7,294.2 26.3,279 27.4,283.2 48.5,295.3 44.3,296.4 28.5,287.3 29.7,291.5 40.2,297.5 36,298.7 
						30.8,295.6 31.9,299.8 43,341.3 95.7,371.7 94.6,367.6 47.2,340.2 51.3,339.1 93.5,363.4 92.3,359.3 55.5,338 59.6,336.9 
						91.2,355.1 90.1,350.9 63.8,335.7 67.9,334.6 89,346.8 87.9,342.6 72.1,333.5 76.2,332.4 86.8,338.5 85.7,334.3 80.4,331.3 
						84.5,330.2 83.4,326 88.7,329.1 92.9,328 82.3,321.9 81.2,317.7 97,326.8 101.2,325.7 80.1,313.6 79,309.4 105.3,324.6 
						109.5,323.5 77.9,305.3 76.8,301.1 113.6,322.4 117.8,321.3 75.6,296.9 74.5,292.8 					"/>
					<polygon class="st7" points="138.2,48.7 142.4,47.6 89.7,17.2 85.6,18.3 38.2,-9.1 39.3,-4.9 81.4,19.4 77.3,20.5 40.4,-0.8 
						41.5,3.4 73.1,21.6 68.9,22.7 42.6,7.5 43.7,11.7 64.8,23.9 60.6,25 44.8,15.8 46,20 56.5,26.1 52.3,27.2 47.1,24.2 48.2,28.3 
						44,29.4 49.3,32.5 50.4,36.6 39.9,30.5 35.7,31.6 51.5,40.8 52.6,44.9 31.6,32.8 27.4,33.9 53.7,49.1 54.9,53.2 23.3,35 
						19.1,36.1 56,57.4 57.1,61.5 15,37.2 10.8,38.3 58.2,65.7 59.3,69.8 112,100.2 110.9,96.1 63.5,68.7 67.6,67.6 109.7,91.9 
						108.6,87.8 71.8,66.5 75.9,65.4 107.5,83.6 106.4,79.5 80.1,64.3 84.2,63.2 105.3,75.3 104.2,71.2 88.4,62 92.5,60.9 103.1,67 
						102,62.9 96.7,59.8 100.8,58.7 99.7,54.6 105,57.6 109.2,56.5 98.6,50.4 97.5,46.3 113.3,55.4 117.5,54.3 96.4,42.1 95.3,37.9 
						121.6,53.1 125.8,52 94.2,33.8 93.1,29.6 129.9,50.9 134.1,49.8 91.9,25.5 90.8,21.3 					"/>
					<polygon class="st7" points="160.5,131.8 164.6,130.7 112,100.2 107.8,101.4 60.4,74 61.5,78.1 103.7,102.5 99.5,103.6 
						62.6,82.3 63.8,86.5 95.4,104.7 91.2,105.8 64.9,90.6 66,94.8 87.1,106.9 82.9,108 67.1,98.9 68.2,103.1 78.7,109.1 
						74.6,110.3 69.3,107.2 70.4,111.4 66.3,112.5 71.6,115.5 72.7,119.7 62.1,113.6 58,114.7 73.8,123.8 74.9,128 53.8,115.8 
						49.7,116.9 76,132.1 77.1,136.3 45.5,118.1 41.4,119.2 78.2,140.4 79.3,144.6 37.2,120.3 33.1,121.4 80.5,148.8 81.6,152.9 
						134.2,183.3 133.1,179.2 85.7,151.8 89.9,150.7 132,175 130.9,170.9 94,149.6 98.2,148.5 129.8,166.7 128.7,162.5 102.3,147.3 
						106.5,146.2 127.6,158.4 126.4,154.2 110.6,145.1 114.8,144 125.3,150.1 124.2,145.9 118.9,142.9 123.1,141.8 122,137.6 
						127.3,140.7 131.4,139.6 120.9,133.5 119.8,129.3 135.6,138.4 139.7,137.3 118.7,125.2 117.5,121 143.9,136.2 148,135.1 
						116.4,116.9 115.3,112.7 152.2,134 156.3,132.9 114.2,108.6 113.1,104.4 					"/>
					<polygon class="st7" points="182.7,214.8 186.9,213.7 134.2,183.3 130.1,184.4 82.7,157.1 83.8,161.2 125.9,185.5 121.8,186.7 
						84.9,165.4 86,169.5 117.6,187.8 113.5,188.9 87.1,173.7 88.2,177.8 109.3,190 105.2,191.1 89.4,182 90.5,186.1 101,192.2 
						96.9,193.3 91.6,190.3 92.7,194.4 88.5,195.6 93.8,198.6 94.9,202.8 84.4,196.7 80.2,197.8 96,206.9 97.1,211.1 76.1,198.9 
						71.9,200 98.3,215.2 99.4,219.4 67.8,201.1 63.6,202.2 100.5,223.5 101.6,227.7 59.5,203.3 55.3,204.5 102.7,231.8 103.8,236 
						156.5,266.4 155.4,262.2 108,234.9 112.1,233.8 154.3,258.1 153.2,253.9 116.3,232.6 120.4,231.5 152,249.8 150.9,245.6 
						124.6,230.4 128.7,229.3 149.8,241.5 148.7,237.3 132.9,228.2 137.1,227.1 147.6,233.2 146.5,229 141.2,226 145.4,224.8 
						144.2,220.7 149.5,223.7 153.7,222.6 143.1,216.5 142,212.4 157.8,221.5 162,220.4 140.9,208.2 139.8,204.1 166.1,219.3 
						170.3,218.2 138.7,199.9 137.6,195.8 174.4,217.1 178.6,215.9 136.5,191.6 135.3,187.5 					"/>
					<polygon class="st7" points="227.3,381 231.4,379.9 178.7,349.5 174.6,350.6 127.2,323.2 128.3,327.4 170.4,351.7 166.3,352.8 
						129.4,331.5 130.5,335.7 162.1,353.9 158,355 131.6,339.8 132.8,344 153.8,356.1 149.7,357.2 133.9,348.1 135,352.3 
						145.5,358.4 141.4,359.5 136.1,356.4 137.2,360.6 133.1,361.7 138.3,364.7 139.4,368.9 128.9,362.8 124.8,363.9 140.6,373 
						141.7,377.2 120.6,365 116.4,366.1 142.8,381.3 143.9,385.5 112.3,367.3 108.1,368.4 145,389.7 146.1,393.8 104,369.5 
						99.8,370.6 147.2,398 148.3,402.1 189.9,391 188.8,386.8 194,389.9 198.2,388.8 187.7,382.7 186.5,378.5 202.3,387.6 
						206.5,386.5 185.4,374.4 184.3,370.2 210.6,385.4 214.8,384.3 183.2,366.1 182.1,361.9 219,383.2 223.1,382.1 181,357.8 
						179.9,353.6 					"/>
					<polygon class="st7" points="205,297.9 209.2,296.8 156.5,266.4 152.3,267.5 104.9,240.1 106.1,244.3 148.2,268.6 144,269.7 
						107.2,248.4 108.3,252.6 139.9,270.8 135.7,271.9 109.4,256.7 110.5,260.9 131.6,273.1 127.4,274.2 111.6,265.1 112.7,269.2 
						123.3,275.3 119.1,276.4 113.8,273.4 115,277.5 110.8,278.6 116.1,281.7 117.2,285.8 106.6,279.7 102.5,280.9 118.3,290 
						119.4,294.1 98.3,282 94.2,283.1 120.5,298.3 121.6,302.4 90,284.2 85.9,285.3 122.7,306.6 123.9,310.7 81.7,286.4 77.6,287.5 
						125,314.9 126.1,319 178.7,349.5 177.6,345.3 130.2,317.9 134.4,316.8 176.5,341.1 175.4,337 138.5,315.7 142.7,314.6 
						174.3,332.8 173.2,328.7 146.9,313.5 151,312.4 172.1,324.5 171,320.4 155.2,311.3 159.3,310.1 169.8,316.2 168.7,312.1 
						163.5,309 167.6,307.9 166.5,303.8 171.8,306.8 175.9,305.7 165.4,299.6 164.3,295.5 180.1,304.6 184.2,303.5 163.2,291.3 
						162.1,287.2 188.4,302.4 192.5,301.2 160.9,283 159.8,278.8 196.7,300.1 200.8,299 158.7,274.7 157.6,270.5 					"/>
					<polygon class="st7" points="221.3,26.4 225.4,25.3 172.8,-5.1 168.6,-4 121.2,-31.3 122.3,-27.2 164.5,-2.9 160.3,-1.7 
						123.5,-23 124.6,-18.9 156.2,-0.6 152,0.5 125.7,-14.7 126.8,-10.6 147.9,1.6 143.7,2.7 127.9,-6.4 129,-2.3 139.6,3.8 
						135.4,4.9 130.1,1.9 131.2,6 127.1,7.2 132.4,10.2 133.5,14.4 122.9,8.3 118.8,9.4 134.6,18.5 135.7,22.7 114.6,10.5 
						110.5,11.6 136.8,26.8 137.9,31 106.3,12.7 102.2,13.8 139,35.1 140.2,39.3 98,15 93.9,16.1 141.3,43.4 142.4,47.6 195,78 
						193.9,73.8 146.5,46.5 150.7,45.4 192.8,69.7 191.7,65.5 154.8,44.2 159,43.1 190.6,61.4 189.5,57.2 163.1,42 167.3,40.9 
						188.4,53.1 187.3,48.9 171.5,39.8 175.6,38.7 186.1,44.8 185,40.6 179.8,37.6 183.9,36.5 182.8,32.3 188.1,35.3 192.2,34.2 
						181.7,28.1 180.6,24 196.4,33.1 200.5,32 179.5,19.8 178.3,15.7 204.7,30.9 208.8,29.8 177.2,11.5 176.1,7.4 213,28.7 
						217.1,27.5 175,3.2 173.9,-0.9 					"/>
					<polygon class="st7" points="243.6,109.5 247.7,108.4 195,78 190.9,79.1 143.5,51.7 144.6,55.9 186.7,80.2 182.6,81.3 
						145.7,60 146.8,64.2 178.4,82.4 174.3,83.6 147.9,68.3 149.1,72.5 170.1,84.7 166,85.8 150.2,76.7 151.3,80.8 161.8,86.9 
						157.7,88 152.4,85 153.5,89.1 149.4,90.2 154.6,93.3 155.7,97.4 145.2,91.3 141,92.5 156.8,101.6 158,105.7 136.9,93.6 
						132.7,94.7 159.1,109.9 160.2,114 128.6,95.8 124.4,96.9 161.3,118.2 162.4,122.3 120.3,98 116.1,99.1 163.5,126.5 
						164.6,130.7 217.3,161.1 216.2,156.9 168.8,129.5 172.9,128.4 215.1,152.7 214,148.6 177.1,127.3 181.3,126.2 212.8,144.4 
						211.7,140.3 185.4,125.1 189.6,124 210.6,136.1 209.5,132 193.7,122.9 197.9,121.7 208.4,127.8 207.3,123.7 202,120.6 
						206.2,119.5 205.1,115.4 210.3,118.4 214.5,117.3 203.9,111.2 202.8,107.1 218.6,116.2 222.8,115.1 201.7,102.9 200.6,98.8 
						226.9,114 231.1,112.8 199.5,94.6 198.4,90.4 235.2,111.7 239.4,110.6 197.3,86.3 196.2,82.1 					"/>
					<polygon class="st7" points="265.8,192.6 270,191.5 217.3,161.1 213.1,162.2 165.7,134.8 166.9,139 209,163.3 204.8,164.4 
						168,143.1 169.1,147.3 200.7,165.5 196.5,166.6 170.2,151.4 171.3,155.6 192.4,167.7 188.2,168.8 172.4,159.7 173.5,163.9 
						184.1,170 179.9,171.1 174.7,168 175.8,172.2 171.6,173.3 176.9,176.3 178,180.5 167.5,174.4 163.3,175.5 179.1,184.6 
						180.2,188.8 159.2,176.6 155,177.8 181.3,193 182.4,197.1 150.8,178.9 146.7,180 183.6,201.3 184.7,205.4 142.5,181.1 
						138.4,182.2 185.8,209.6 186.9,213.7 239.6,244.1 238.4,240 191,212.6 195.2,211.5 237.3,235.8 236.2,231.7 199.4,210.4 
						203.5,209.3 235.1,227.5 234,223.4 207.7,208.2 211.8,207 232.9,219.2 231.8,215.1 216,205.9 220.1,204.8 230.7,210.9 
						229.5,206.7 224.3,203.7 228.4,202.6 227.3,198.4 232.6,201.5 236.7,200.4 226.2,194.3 225.1,190.1 240.9,199.3 245,198.1 
						224,186 222.9,181.8 249.2,197 253.4,195.9 221.8,177.7 220.6,173.5 257.5,194.8 261.7,193.7 219.5,169.4 218.4,165.2 					"/>
					<polygon class="st7" points="310.3,358.7 314.5,357.6 261.8,327.2 257.7,328.3 210.3,300.9 211.4,305.1 253.5,329.4 
						249.4,330.5 212.5,309.2 213.6,313.4 245.2,331.6 241,332.8 214.7,317.6 215.8,321.7 236.9,333.9 232.7,335 216.9,325.9 
						218.1,330 228.6,336.1 224.4,337.2 219.2,334.2 220.3,338.3 216.1,339.4 221.4,342.5 222.5,346.6 212,340.5 207.8,341.7 
						223.6,350.8 224.7,354.9 203.7,342.8 199.5,343.9 225.8,359.1 227,363.2 195.4,345 191.2,346.1 228.1,367.4 229.2,371.6 
						187.1,347.2 182.9,348.3 230.3,375.7 231.4,379.9 272.9,368.7 271.8,364.6 277.1,367.6 281.3,366.5 270.7,360.4 269.6,356.3 
						285.4,365.4 289.6,364.3 268.5,352.1 267.4,348 293.7,363.2 297.9,362.1 266.3,343.8 265.2,339.7 302,360.9 306.2,359.8 
						264,335.5 262.9,331.3 					"/>
					<polygon class="st7" points="288.1,275.6 292.2,274.5 239.6,244.1 235.4,245.2 188,217.9 189.1,222 231.3,246.4 227.1,247.5 
						190.2,226.2 191.3,230.3 222.9,248.6 218.8,249.7 192.5,234.5 193.6,238.6 214.6,250.8 210.5,251.9 194.7,242.8 195.8,246.9 
						206.3,253 202.2,254.1 196.9,251.1 198,255.3 193.9,256.4 199.1,259.4 200.2,263.6 189.7,257.5 185.6,258.6 201.4,267.7 
						202.5,271.9 181.4,259.7 177.3,260.8 203.6,276 204.7,280.2 173.1,261.9 168.9,263 205.8,284.3 206.9,288.5 164.8,264.2 
						160.6,265.3 208,292.6 209.2,296.8 261.8,327.2 260.7,323 213.3,295.7 217.5,294.6 259.6,318.9 258.5,314.7 221.6,293.5 
						225.8,292.3 257.4,310.6 256.3,306.4 229.9,291.2 234.1,290.1 255.1,302.3 254,298.1 238.2,289 242.4,287.9 252.9,294 
						251.8,289.8 246.5,286.8 250.7,285.7 249.6,281.5 254.8,284.5 259,283.4 248.5,277.4 247.3,273.2 263.1,282.3 267.3,281.2 
						246.2,269 245.1,264.9 271.5,280.1 275.6,279 244,260.7 242.9,256.6 279.8,277.9 283.9,276.8 241.8,252.4 240.7,248.3 					"/>
					<polygon class="st7" points="304.4,4.2 308.5,3.1 255.9,-27.3 251.7,-26.2 204.3,-53.6 205.4,-49.4 247.5,-25.1 243.4,-24 
						206.5,-45.3 207.6,-41.1 239.2,-22.9 235.1,-21.8 208.8,-37 209.9,-32.8 230.9,-20.7 226.8,-19.5 211,-28.7 212.1,-24.5 
						222.6,-18.4 218.5,-17.3 213.2,-20.4 214.3,-16.2 210.2,-15.1 215.4,-12.1 216.5,-7.9 206,-14 201.9,-12.9 217.7,-3.8 
						218.8,0.4 197.7,-11.8 193.6,-10.6 219.9,4.6 221,8.7 189.4,-9.5 185.2,-8.4 222.1,12.9 223.2,17 181.1,-7.3 176.9,-6.2 
						224.3,21.2 225.4,25.3 278.1,55.7 277,51.6 229.6,24.2 233.8,23.1 275.9,47.4 274.8,43.3 237.9,22 242.1,20.9 273.7,39.1 
						272.5,35 246.2,19.8 250.4,18.6 271.4,30.8 270.3,26.7 254.5,17.5 258.7,16.4 269.2,22.5 268.1,18.3 262.8,15.3 267,14.2 
						265.9,10 271.1,13.1 275.3,12 264.8,5.9 263.6,1.7 279.4,10.9 283.6,9.7 262.5,-2.4 261.4,-6.6 287.7,8.6 291.9,7.5 
						260.3,-10.7 259.2,-14.9 296.1,6.4 300.2,5.3 258.1,-19 257,-23.2 					"/>
					<polygon class="st7" points="326.6,87.2 330.8,86.1 278.1,55.7 274,56.8 226.6,29.5 227.7,33.6 269.8,58 265.7,59.1 
						228.8,37.8 229.9,41.9 261.5,60.2 257.3,61.3 231,46.1 232.1,50.2 253.2,62.4 249,63.5 233.2,54.4 234.4,58.6 244.9,64.6 
						240.7,65.7 235.5,62.7 236.6,66.9 232.4,68 237.7,71 238.8,75.2 228.3,69.1 224.1,70.2 239.9,79.3 241,83.5 220,71.3 
						215.8,72.4 242.1,87.6 243.3,91.8 211.7,73.5 207.5,74.6 244.4,95.9 245.5,100.1 203.3,75.8 199.2,76.9 246.6,104.2 
						247.7,108.4 300.4,138.8 299.3,134.6 251.9,107.3 256,106.2 298.1,130.5 297,126.3 260.2,105.1 264.3,103.9 295.9,122.2 
						294.8,118 268.5,102.8 272.6,101.7 293.7,113.9 292.6,109.7 276.8,100.6 280.9,99.5 291.5,105.6 290.4,101.4 285.1,98.4 
						289.2,97.3 288.1,93.1 293.4,96.2 297.5,95 287,89 285.9,84.8 301.7,93.9 305.9,92.8 284.8,80.6 283.7,76.5 310,91.7 
						314.2,90.6 282.6,72.3 281.4,68.2 318.3,89.5 322.5,88.4 280.3,64 279.2,59.9 					"/>
					<polygon class="st7" points="348.9,170.3 353,169.2 300.4,138.8 296.2,139.9 248.8,112.5 249.9,116.7 292.1,141 287.9,142.1 
						251,120.9 252.2,125 283.8,143.2 279.6,144.4 253.3,129.2 254.4,133.3 275.4,145.5 271.3,146.6 255.5,137.5 256.6,141.6 
						267.1,147.7 263,148.8 257.7,145.8 258.8,149.9 254.7,151 259.9,154.1 261.1,158.2 250.5,152.2 246.4,153.3 262.2,162.4 
						263.3,166.5 242.2,154.4 238.1,155.5 264.4,170.7 265.5,174.8 233.9,156.6 229.8,157.7 266.6,179 267.7,183.2 225.6,158.8 
						221.5,159.9 268.9,187.3 270,191.5 322.6,221.9 321.5,217.7 274.1,190.3 278.3,189.2 320.4,213.6 319.3,209.4 282.4,188.1 
						286.6,187 318.2,205.3 317.1,201.1 290.7,185.9 294.9,184.8 316,196.9 314.8,192.8 299,183.7 303.2,182.6 313.7,188.6 
						312.6,184.5 307.3,181.4 311.5,180.3 310.4,176.2 315.7,179.2 319.8,178.1 309.3,172 308.2,167.9 324,177 328.1,175.9 
						307,163.7 305.9,159.6 332.3,174.8 336.4,173.7 304.8,155.4 303.7,151.3 340.6,172.5 344.7,171.4 302.6,147.1 301.5,143 					
						"/>
					<polygon class="st7" points="393.4,336.5 397.5,335.3 344.9,304.9 340.7,306 293.3,278.7 294.4,282.8 336.6,307.2 332.4,308.3 
						295.6,287 296.7,291.1 328.3,309.4 324.1,310.5 297.8,295.3 298.9,299.5 320,311.6 315.8,312.7 300,303.6 301.1,307.8 
						311.7,313.8 307.5,315 302.2,311.9 303.4,316.1 299.2,317.2 304.5,320.2 305.6,324.4 295,318.3 290.9,319.4 306.7,328.5 
						307.8,332.7 286.7,320.5 282.6,321.6 308.9,336.8 310,341 278.4,322.7 274.3,323.9 311.1,345.1 312.3,349.3 270.1,325 
						266,326.1 313.4,353.4 314.5,357.6 356,346.5 354.9,342.3 360.2,345.4 364.3,344.2 353.8,338.2 352.7,334 368.5,343.1 
						372.6,342 351.6,329.9 350.5,325.7 376.8,340.9 380.9,339.8 349.3,321.6 348.2,317.4 385.1,338.7 389.2,337.6 347.1,313.2 
						346,309.1 					"/>
					<polygon class="st7" points="371.1,253.4 375.3,252.3 322.6,221.9 318.5,223 271.1,195.6 272.2,199.8 314.3,224.1 310.2,225.2 
						273.3,203.9 274.4,208.1 306,226.3 301.9,227.4 275.5,212.2 276.6,216.4 297.7,228.5 293.6,229.7 277.8,220.5 278.9,224.7 
						289.4,230.8 285.2,231.9 280,228.8 281.1,233 276.9,234.1 282.2,237.1 283.3,241.3 272.8,235.2 268.6,236.3 284.4,245.5 
						285.5,249.6 264.5,237.4 260.3,238.6 286.7,253.8 287.8,257.9 256.2,239.7 252,240.8 288.9,262.1 290,266.2 247.9,241.9 
						243.7,243 291.1,270.4 292.2,274.5 344.9,304.9 343.8,300.8 296.4,273.4 300.5,272.3 342.7,296.6 341.5,292.5 304.7,271.2 
						308.8,270.1 340.4,288.3 339.3,284.2 313,269 317.1,267.9 338.2,280 337.1,275.9 321.3,266.7 325.4,265.6 336,271.7 
						334.9,267.6 329.6,264.5 333.8,263.4 332.6,259.2 337.9,262.3 342.1,261.2 331.5,255.1 330.4,250.9 346.2,260.1 350.4,259 
						329.3,246.8 328.2,242.6 354.5,257.8 358.7,256.7 327.1,238.5 326,234.3 362.8,255.6 367,254.5 324.9,230.2 323.7,226 					"/>
					<polygon class="st7" points="387.4,-18.1 391.6,-19.2 338.9,-49.6 334.8,-48.5 287.4,-75.9 288.5,-71.7 330.6,-47.4 
						326.5,-46.3 289.6,-67.5 290.7,-63.4 322.3,-45.1 318.2,-44 291.8,-59.2 292.9,-55.1 314,-42.9 309.8,-41.8 294,-50.9 
						295.2,-46.8 305.7,-40.7 301.5,-39.6 296.3,-42.6 297.4,-38.5 293.2,-37.4 298.5,-34.3 299.6,-30.2 289.1,-36.2 284.9,-35.1 
						300.7,-26 301.8,-21.9 280.8,-34 276.6,-32.9 303,-17.7 304.1,-13.5 272.5,-31.8 268.3,-30.7 305.2,-9.4 306.3,-5.2 
						264.2,-29.6 260,-28.5 307.4,-1.1 308.5,3.1 361.2,33.5 360.1,29.3 312.7,2 316.8,0.8 359,25.2 357.8,21 321,-0.3 325.1,-1.4 
						356.7,16.9 355.6,12.7 329.3,-2.5 333.4,-3.6 354.5,8.6 353.4,4.4 337.6,-4.7 341.7,-5.8 352.3,0.2 351.2,-3.9 345.9,-7 
						350.1,-8.1 348.9,-12.2 354.2,-9.2 358.4,-10.3 347.8,-16.4 346.7,-20.5 362.5,-11.4 366.7,-12.5 345.6,-24.7 344.5,-28.8 
						370.8,-13.6 375,-14.7 343.4,-33 342.3,-37.1 379.1,-15.9 383.3,-17 341.1,-41.3 340,-45.4 					"/>
					<polygon class="st7" points="409.7,65 413.8,63.9 361.2,33.5 357,34.6 309.6,7.2 310.7,11.4 352.9,35.7 348.7,36.8 311.9,15.5 
						313,19.7 344.6,37.9 340.4,39 314.1,23.8 315.2,28 336.3,40.1 332.1,41.3 316.3,32.1 317.4,36.3 328,42.4 323.8,43.5 
						318.5,40.4 319.6,44.6 315.5,45.7 320.8,48.8 321.9,52.9 311.3,46.8 307.2,47.9 323,57.1 324.1,61.2 303,49.1 298.9,50.2 
						325.2,65.4 326.3,69.5 294.7,51.3 290.6,52.4 327.4,73.7 328.5,77.8 286.4,53.5 282.3,54.6 329.7,82 330.8,86.1 383.4,116.5 
						382.3,112.4 334.9,85 339.1,83.9 381.2,108.2 380.1,104.1 343.2,82.8 347.4,81.7 379,99.9 377.9,95.8 351.5,80.6 355.7,79.5 
						376.8,91.6 375.6,87.5 359.8,78.3 364,77.2 374.5,83.3 373.4,79.2 368.2,76.1 372.3,75 371.2,70.9 376.5,73.9 380.6,72.8 
						370.1,66.7 369,62.5 384.8,71.7 388.9,70.6 367.9,58.4 366.7,54.2 393.1,69.4 397.2,68.3 365.6,50.1 364.5,45.9 401.4,67.2 
						405.5,66.1 363.4,41.8 362.3,37.6 					"/>
					<polygon class="st7" points="423.6,150.3 427.8,149.2 385.7,124.8 383.4,116.5 379.3,117.7 331.9,90.3 333,94.4 375.1,118.8 
						371,119.9 334.1,98.6 335.2,102.7 366.8,121 362.7,122.1 336.3,106.9 337.5,111.1 358.5,123.2 354.4,124.3 338.6,115.2 
						339.7,119.4 350.2,125.4 346.1,126.6 340.8,123.5 341.9,127.7 337.8,128.8 343,131.8 344.1,136 333.6,129.9 329.4,131 
						345.2,140.1 346.4,144.3 325.3,132.1 321.1,133.2 347.5,148.4 348.6,152.6 317,134.3 312.8,135.5 349.7,156.7 350.8,160.9 
						308.7,136.6 304.5,137.7 351.9,165.1 353,169.2 405.7,199.6 404.6,195.5 357.2,168.1 361.3,167 403.5,191.3 402.4,187.1 
						365.5,165.9 369.6,164.8 401.2,183 400.1,178.8 373.8,163.6 378,162.5 399,174.7 397.9,170.5 382.1,161.4 386.3,160.3 
						396.8,166.4 395.7,162.2 390.4,159.2 394.6,158.1 393.5,153.9 398.7,157 402.9,155.8 392.3,149.8 391.2,145.6 407,154.7 
						411.2,153.6 390.1,141.5 389,137.3 415.3,152.5 419.5,151.4 387.9,133.2 386.8,129 					"/>
					<polygon class="st7" points="476.5,314.2 480.6,313.1 428,282.7 423.8,283.8 376.4,256.4 377.5,260.6 419.6,284.9 415.5,286 
						378.6,264.7 379.7,268.9 411.3,287.1 407.2,288.2 380.9,273 382,277.2 403,289.4 398.9,290.5 383.1,281.3 384.2,285.5 
						394.7,291.6 390.6,292.7 385.3,289.7 386.4,293.8 382.3,294.9 387.5,298 388.6,302.1 378.1,296 374,297.1 389.8,306.3 
						390.9,310.4 369.8,298.3 365.7,299.4 392,314.6 393.1,318.7 361.5,300.5 357.3,301.6 394.2,322.9 395.3,327 353.2,302.7 
						349,303.8 396.4,331.2 397.5,335.3 439.1,324.2 438,320.1 443.2,323.1 447.4,322 436.9,315.9 435.7,311.8 451.5,320.9 
						455.7,319.8 434.6,307.6 433.5,303.4 459.9,318.6 464,317.5 432.4,299.3 431.3,295.1 468.2,316.4 472.3,315.3 430.2,291 
						429.1,286.8 					"/>
					<polygon class="st7" points="454.2,231.1 458.4,230 405.7,199.6 401.5,200.7 354.1,173.4 355.3,177.5 397.4,201.8 393.2,202.9 
						356.4,181.7 357.5,185.8 389.1,204.1 384.9,205.2 358.6,190 359.7,194.1 380.8,206.3 376.6,207.4 360.8,198.3 361.9,202.4 
						372.5,208.5 368.3,209.6 363,206.6 364.2,210.7 360,211.9 365.3,214.9 366.4,219 355.9,213 351.7,214.1 367.5,223.2 
						368.6,227.4 347.5,215.2 343.4,216.3 369.7,231.5 370.8,235.7 339.2,217.4 335.1,218.5 372,239.8 373.1,244 330.9,219.6 
						326.8,220.8 374.2,248.1 375.3,252.3 428,282.7 426.8,278.5 379.4,251.2 383.6,250 425.7,274.4 424.6,270.2 387.8,248.9 
						391.9,247.8 423.5,266.1 422.4,261.9 396.1,246.7 400.2,245.6 421.3,257.8 420.2,253.6 404.4,244.5 408.5,243.4 419.1,249.5 
						417.9,245.3 412.7,242.3 416.8,241.1 415.7,237 421,240 425.1,238.9 414.6,232.8 413.5,228.7 429.3,237.8 433.4,236.7 
						412.4,224.5 411.3,220.4 437.6,235.6 441.7,234.5 410.1,216.2 409,212.1 445.9,233.4 450.1,232.2 407.9,207.9 406.8,203.8 
											"/>
				</g>
			</g>
		</g>
	</g>
</g>
</svg>
